<svg width="915" height="598" viewBox="0 0 915 598" fill="none" xmlns="http://www.w3.org/2000/svg">
<path d="M181.264 421.866C140.09 421.866 100.603 405.521 71.4891 376.429C42.3749 347.336 26.0188 307.877 26.0188 266.734C26.0188 225.59 42.3749 186.132 71.4891 157.039C100.603 127.946 140.09 111.602 181.264 111.602C222.438 111.602 261.925 127.946 291.039 157.039C320.153 186.132 336.509 225.59 336.509 266.734C336.509 307.877 320.153 347.336 291.039 376.429C261.925 405.521 222.438 421.866 181.264 421.866Z" fill="#BECE55"/>
<path d="M92.2658 236L87.2737 223.115H89.1194L92.468 232.476C92.7375 233.226 92.9631 233.929 93.1447 234.585C93.344 233.882 93.5754 233.179 93.8391 232.476L97.3195 223.115H99.0598L94.0149 236H92.2658ZM100.879 236V223.115H102.584V236H100.879ZM105.08 229.725C105.08 227.586 105.655 225.913 106.803 224.706C107.951 223.493 109.434 222.887 111.25 222.887C112.44 222.887 113.512 223.171 114.467 223.739C115.422 224.308 116.149 225.102 116.647 226.121C117.151 227.135 117.403 228.286 117.403 229.575C117.403 230.882 117.139 232.051 116.612 233.082C116.084 234.113 115.337 234.896 114.37 235.429C113.404 235.956 112.361 236.22 111.241 236.22C110.029 236.22 108.945 235.927 107.989 235.341C107.034 234.755 106.311 233.955 105.819 232.941C105.326 231.928 105.08 230.855 105.08 229.725ZM106.838 229.751C106.838 231.304 107.254 232.528 108.086 233.425C108.924 234.315 109.973 234.761 111.233 234.761C112.516 234.761 113.571 234.31 114.397 233.407C115.229 232.505 115.645 231.225 115.645 229.566C115.645 228.518 115.466 227.604 115.109 226.824C114.757 226.039 114.238 225.433 113.553 225.005C112.873 224.571 112.109 224.354 111.259 224.354C110.052 224.354 109.012 224.771 108.139 225.603C107.272 226.429 106.838 227.812 106.838 229.751ZM119.538 236V223.115H121.243V234.479H127.589V236H119.538ZM129.663 236V223.115H138.98V224.636H131.368V228.582H138.496V230.094H131.368V234.479H139.279V236H129.663ZM141.616 236V223.115H143.365L150.133 233.231V223.115H151.768V236H150.019L143.251 225.875V236H141.616ZM163.835 231.482L165.54 231.913C165.183 233.313 164.538 234.383 163.607 235.121C162.681 235.854 161.547 236.22 160.205 236.22C158.817 236.22 157.686 235.938 156.813 235.376C155.946 234.808 155.283 233.987 154.826 232.915C154.375 231.843 154.15 230.691 154.15 229.461C154.15 228.119 154.405 226.95 154.914 225.954C155.43 224.952 156.159 224.193 157.103 223.678C158.052 223.156 159.095 222.896 160.232 222.896C161.521 222.896 162.605 223.224 163.484 223.88C164.363 224.536 164.975 225.459 165.321 226.648L163.642 227.044C163.343 226.106 162.909 225.424 162.341 224.996C161.773 224.568 161.058 224.354 160.197 224.354C159.206 224.354 158.377 224.592 157.709 225.066C157.047 225.541 156.581 226.18 156.312 226.982C156.042 227.779 155.907 228.603 155.907 229.452C155.907 230.548 156.066 231.506 156.382 232.326C156.704 233.141 157.202 233.75 157.876 234.154C158.55 234.559 159.28 234.761 160.065 234.761C161.02 234.761 161.828 234.485 162.49 233.935C163.153 233.384 163.601 232.566 163.835 231.482ZM167.94 236V223.115H169.645V236H167.94ZM171.244 236L176.193 223.115H178.03L183.303 236H181.361L179.858 232.098H174.47L173.055 236H171.244ZM174.962 230.709H179.33L177.986 227.141C177.575 226.057 177.271 225.166 177.072 224.469C176.907 225.295 176.676 226.115 176.377 226.93L174.962 230.709ZM184.085 231.86L185.694 231.72C185.77 232.364 185.946 232.895 186.221 233.311C186.502 233.721 186.936 234.055 187.522 234.312C188.108 234.564 188.767 234.69 189.499 234.69C190.15 234.69 190.724 234.594 191.222 234.4C191.72 234.207 192.089 233.943 192.329 233.609C192.575 233.27 192.698 232.9 192.698 232.502C192.698 232.098 192.581 231.746 192.347 231.447C192.113 231.143 191.726 230.888 191.187 230.683C190.841 230.548 190.076 230.34 188.893 230.059C187.709 229.771 186.88 229.502 186.405 229.25C185.79 228.928 185.33 228.529 185.026 228.055C184.727 227.574 184.577 227.038 184.577 226.446C184.577 225.796 184.762 225.189 185.131 224.627C185.5 224.059 186.039 223.628 186.748 223.335C187.457 223.042 188.245 222.896 189.113 222.896C190.068 222.896 190.908 223.051 191.635 223.361C192.367 223.666 192.93 224.117 193.322 224.715C193.715 225.312 193.926 225.989 193.955 226.745L192.321 226.868C192.233 226.054 191.934 225.438 191.424 225.022C190.92 224.606 190.173 224.398 189.183 224.398C188.152 224.398 187.399 224.589 186.924 224.97C186.455 225.345 186.221 225.799 186.221 226.332C186.221 226.795 186.388 227.176 186.722 227.475C187.05 227.773 187.905 228.081 189.288 228.397C190.677 228.708 191.629 228.98 192.145 229.215C192.895 229.561 193.448 230 193.806 230.533C194.163 231.061 194.342 231.67 194.342 232.361C194.342 233.047 194.146 233.694 193.753 234.304C193.361 234.907 192.795 235.379 192.057 235.719C191.324 236.053 190.498 236.22 189.578 236.22C188.412 236.22 187.434 236.05 186.643 235.71C185.858 235.37 185.239 234.86 184.788 234.181C184.343 233.495 184.109 232.722 184.085 231.86ZM210.874 231.482L212.579 231.913C212.222 233.313 211.577 234.383 210.646 235.121C209.72 235.854 208.586 236.22 207.244 236.22C205.856 236.22 204.725 235.938 203.852 235.376C202.985 234.808 202.322 233.987 201.865 232.915C201.414 231.843 201.189 230.691 201.189 229.461C201.189 228.119 201.444 226.95 201.953 225.954C202.469 224.952 203.198 224.193 204.142 223.678C205.091 223.156 206.134 222.896 207.271 222.896C208.56 222.896 209.644 223.224 210.523 223.88C211.402 224.536 212.014 225.459 212.36 226.648L210.681 227.044C210.382 226.106 209.948 225.424 209.38 224.996C208.812 224.568 208.097 224.354 207.236 224.354C206.245 224.354 205.416 224.592 204.748 225.066C204.086 225.541 203.62 226.18 203.351 226.982C203.081 227.779 202.947 228.603 202.947 229.452C202.947 230.548 203.105 231.506 203.421 232.326C203.743 233.141 204.241 233.75 204.915 234.154C205.589 234.559 206.319 234.761 207.104 234.761C208.059 234.761 208.867 234.485 209.53 233.935C210.192 233.384 210.64 232.566 210.874 231.482ZM214.17 229.725C214.17 227.586 214.744 225.913 215.893 224.706C217.041 223.493 218.524 222.887 220.34 222.887C221.53 222.887 222.602 223.171 223.557 223.739C224.512 224.308 225.238 225.102 225.737 226.121C226.24 227.135 226.492 228.286 226.492 229.575C226.492 230.882 226.229 232.051 225.701 233.082C225.174 234.113 224.427 234.896 223.46 235.429C222.493 235.956 221.45 236.22 220.331 236.22C219.118 236.22 218.034 235.927 217.079 235.341C216.124 234.755 215.401 233.955 214.908 232.941C214.416 231.928 214.17 230.855 214.17 229.725ZM215.928 229.751C215.928 231.304 216.344 232.528 217.176 233.425C218.014 234.315 219.063 234.761 220.322 234.761C221.606 234.761 222.66 234.31 223.487 233.407C224.319 232.505 224.735 231.225 224.735 229.566C224.735 228.518 224.556 227.604 224.198 226.824C223.847 226.039 223.328 225.433 222.643 225.005C221.963 224.571 221.198 224.354 220.349 224.354C219.142 224.354 218.102 224.771 217.229 225.603C216.362 226.429 215.928 227.812 215.928 229.751ZM228.681 236V223.115H230.43L237.197 233.231V223.115H238.832V236H237.083L230.316 225.875V236H228.681ZM244.985 236V224.636H240.739V223.115H250.952V224.636H246.69V236H244.985ZM252.737 236V223.115H258.449C259.598 223.115 260.471 223.232 261.069 223.467C261.666 223.695 262.144 224.103 262.501 224.688C262.859 225.274 263.037 225.922 263.037 226.631C263.037 227.545 262.741 228.315 262.15 228.942C261.558 229.569 260.644 229.968 259.407 230.138C259.859 230.354 260.201 230.568 260.436 230.779C260.934 231.236 261.405 231.808 261.851 232.493L264.092 236H261.947L260.242 233.319C259.744 232.546 259.334 231.954 259.012 231.544C258.69 231.134 258.4 230.847 258.142 230.683C257.89 230.519 257.632 230.404 257.368 230.34C257.175 230.299 256.859 230.278 256.419 230.278H254.442V236H252.737ZM254.442 228.802H258.107C258.886 228.802 259.495 228.723 259.935 228.564C260.374 228.4 260.708 228.143 260.937 227.791C261.165 227.434 261.28 227.047 261.28 226.631C261.28 226.021 261.057 225.521 260.612 225.128C260.172 224.735 259.475 224.539 258.52 224.539H254.442V228.802ZM264.303 236L269.251 223.115H271.088L276.362 236H274.419L272.916 232.098H267.529L266.113 236H264.303ZM268.021 230.709H272.389L271.044 227.141C270.634 226.057 270.329 225.166 270.13 224.469C269.966 225.295 269.735 226.115 269.436 226.93L268.021 230.709ZM137.081 257V244.115H139.648L142.697 253.238C142.979 254.088 143.184 254.724 143.313 255.146C143.459 254.677 143.688 253.988 143.998 253.08L147.083 244.115H149.377V257H147.734V246.216L143.989 257H142.451L138.725 246.031V257H137.081ZM152.163 257V244.115H161.48V245.636H153.868V249.582H160.996V251.094H153.868V255.479H161.779V257H152.163ZM164.116 257V244.115H165.865L172.633 254.231V244.115H174.268V257H172.519L165.751 246.875V257H164.116ZM176.623 250.725C176.623 248.586 177.197 246.913 178.346 245.706C179.494 244.493 180.977 243.887 182.793 243.887C183.983 243.887 185.055 244.171 186.01 244.739C186.965 245.308 187.692 246.102 188.19 247.121C188.694 248.135 188.946 249.286 188.946 250.575C188.946 251.882 188.682 253.051 188.155 254.082C187.627 255.113 186.88 255.896 185.913 256.429C184.947 256.956 183.904 257.22 182.784 257.22C181.572 257.22 180.488 256.927 179.532 256.341C178.577 255.755 177.854 254.955 177.362 253.941C176.869 252.928 176.623 251.855 176.623 250.725ZM178.381 250.751C178.381 252.304 178.797 253.528 179.629 254.425C180.467 255.315 181.516 255.761 182.776 255.761C184.059 255.761 185.113 255.31 185.94 254.407C186.772 253.505 187.188 252.225 187.188 250.566C187.188 249.518 187.009 248.604 186.652 247.824C186.3 247.039 185.781 246.433 185.096 246.005C184.416 245.571 183.652 245.354 182.802 245.354C181.595 245.354 180.555 245.771 179.682 246.603C178.815 247.429 178.381 248.812 178.381 250.751ZM191.178 257V244.115H196.891C198.039 244.115 198.912 244.232 199.51 244.467C200.108 244.695 200.585 245.103 200.943 245.688C201.3 246.274 201.479 246.922 201.479 247.631C201.479 248.545 201.183 249.315 200.591 249.942C199.999 250.569 199.085 250.968 197.849 251.138C198.3 251.354 198.643 251.568 198.877 251.779C199.375 252.236 199.847 252.808 200.292 253.493L202.533 257H200.389L198.684 254.319C198.186 253.546 197.776 252.954 197.453 252.544C197.131 252.134 196.841 251.847 196.583 251.683C196.331 251.519 196.073 251.404 195.81 251.34C195.616 251.299 195.3 251.278 194.861 251.278H192.883V257H191.178ZM192.883 249.802H196.548C197.327 249.802 197.937 249.723 198.376 249.564C198.816 249.4 199.15 249.143 199.378 248.791C199.607 248.434 199.721 248.047 199.721 247.631C199.721 247.021 199.498 246.521 199.053 246.128C198.613 245.735 197.916 245.539 196.961 245.539H192.883V249.802ZM204.195 257V244.115H213.511V245.636H205.9V249.582H213.028V251.094H205.9V255.479H213.81V257H204.195ZM215.585 252.86L217.194 252.72C217.27 253.364 217.446 253.895 217.721 254.311C218.002 254.721 218.436 255.055 219.022 255.312C219.608 255.564 220.267 255.69 220.999 255.69C221.65 255.69 222.224 255.594 222.722 255.4C223.22 255.207 223.589 254.943 223.829 254.609C224.075 254.27 224.198 253.9 224.198 253.502C224.198 253.098 224.081 252.746 223.847 252.447C223.613 252.143 223.226 251.888 222.687 251.683C222.341 251.548 221.576 251.34 220.393 251.059C219.209 250.771 218.38 250.502 217.905 250.25C217.29 249.928 216.83 249.529 216.526 249.055C216.227 248.574 216.077 248.038 216.077 247.446C216.077 246.796 216.262 246.189 216.631 245.627C217 245.059 217.539 244.628 218.248 244.335C218.957 244.042 219.745 243.896 220.613 243.896C221.568 243.896 222.408 244.051 223.135 244.361C223.867 244.666 224.43 245.117 224.822 245.715C225.215 246.312 225.426 246.989 225.455 247.745L223.821 247.868C223.733 247.054 223.434 246.438 222.924 246.022C222.42 245.606 221.673 245.398 220.683 245.398C219.652 245.398 218.899 245.589 218.424 245.97C217.955 246.345 217.721 246.799 217.721 247.332C217.721 247.795 217.888 248.176 218.222 248.475C218.55 248.773 219.405 249.081 220.788 249.397C222.177 249.708 223.129 249.98 223.645 250.215C224.395 250.561 224.948 251 225.306 251.533C225.663 252.061 225.842 252.67 225.842 253.361C225.842 254.047 225.646 254.694 225.253 255.304C224.861 255.907 224.295 256.379 223.557 256.719C222.824 257.053 221.998 257.22 221.078 257.22C219.912 257.22 218.934 257.05 218.143 256.71C217.358 256.37 216.739 255.86 216.288 255.181C215.843 254.495 215.609 253.722 215.585 252.86Z" fill="black"/>
<path d="M733.866 393.399C700.248 393.399 668.007 380.054 644.235 356.3C620.464 332.545 607.109 300.328 607.109 266.734C607.109 233.141 620.464 200.923 644.235 177.169C668.007 153.414 700.248 140.069 733.866 140.069C767.484 140.069 799.725 153.414 823.497 177.169C847.268 200.923 860.623 233.141 860.623 266.734C860.623 300.328 847.268 332.545 823.497 356.3C799.725 380.054 767.484 393.399 733.866 393.399Z" fill="#BECE55"/>
<path d="M686.15 256.414V249.256H688.616C689.173 249.256 689.597 249.29 689.89 249.358C690.3 249.453 690.65 249.624 690.94 249.871C691.318 250.19 691.599 250.599 691.785 251.097C691.974 251.591 692.068 252.158 692.068 252.796C692.068 253.34 692.005 253.821 691.878 254.241C691.751 254.661 691.588 255.009 691.389 255.286C691.191 255.56 690.973 255.776 690.735 255.936C690.501 256.092 690.216 256.211 689.881 256.292C689.548 256.373 689.166 256.414 688.733 256.414H686.15ZM687.097 255.569H688.626C689.098 255.569 689.467 255.525 689.734 255.438C690.004 255.35 690.219 255.226 690.379 255.066C690.603 254.842 690.777 254.541 690.901 254.163C691.028 253.782 691.091 253.322 691.091 252.781C691.091 252.033 690.968 251.458 690.72 251.058C690.476 250.654 690.178 250.384 689.827 250.247C689.573 250.149 689.164 250.101 688.601 250.101H687.097V255.569ZM693.396 256.414V249.256H698.572V250.101H694.343V252.293H698.303V253.133H694.343V255.569H698.738V256.414H693.396ZM700.007 256.414V249.256H700.955V255.569H704.48V256.414H700.007ZM705.774 256.414V249.256H706.721V256.414H705.774ZM710.217 256.414V250.101H707.859V249.256H713.533V250.101H711.165V256.414H710.217ZM714.036 252.928C714.036 251.74 714.355 250.81 714.993 250.14C715.631 249.466 716.454 249.129 717.464 249.129C718.124 249.129 718.72 249.287 719.251 249.603C719.781 249.918 720.185 250.359 720.462 250.926C720.742 251.489 720.882 252.129 720.882 252.845C720.882 253.571 720.735 254.22 720.442 254.793C720.149 255.366 719.734 255.8 719.197 256.097C718.66 256.39 718.08 256.536 717.459 256.536C716.785 256.536 716.183 256.373 715.652 256.048C715.121 255.722 714.719 255.278 714.446 254.715C714.173 254.152 714.036 253.556 714.036 252.928ZM715.012 252.942C715.012 253.805 715.243 254.485 715.706 254.983C716.171 255.478 716.754 255.726 717.454 255.726C718.167 255.726 718.753 255.475 719.212 254.974C719.674 254.472 719.905 253.761 719.905 252.84C719.905 252.257 719.806 251.749 719.607 251.316C719.412 250.88 719.124 250.543 718.743 250.306C718.365 250.065 717.94 249.944 717.468 249.944C716.798 249.944 716.22 250.175 715.735 250.638C715.253 251.097 715.012 251.865 715.012 252.942ZM721.785 254.114L722.678 254.036C722.721 254.394 722.818 254.689 722.971 254.92C723.128 255.148 723.368 255.333 723.694 255.477C724.02 255.617 724.386 255.687 724.793 255.687C725.154 255.687 725.473 255.633 725.75 255.525C726.026 255.418 726.231 255.271 726.365 255.086C726.502 254.897 726.57 254.692 726.57 254.471C726.57 254.246 726.505 254.051 726.375 253.885C726.244 253.715 726.03 253.574 725.73 253.46C725.538 253.385 725.113 253.27 724.456 253.113C723.798 252.954 723.338 252.804 723.074 252.664C722.732 252.485 722.477 252.264 722.307 252C722.141 251.733 722.058 251.435 722.058 251.106C722.058 250.745 722.161 250.408 722.366 250.096C722.571 249.78 722.87 249.541 723.264 249.378C723.658 249.215 724.096 249.134 724.578 249.134C725.108 249.134 725.576 249.22 725.979 249.393C726.386 249.562 726.699 249.812 726.917 250.145C727.135 250.477 727.252 250.853 727.268 251.272L726.36 251.341C726.311 250.888 726.145 250.547 725.862 250.315C725.582 250.084 725.167 249.969 724.617 249.969C724.044 249.969 723.626 250.075 723.362 250.286C723.102 250.494 722.971 250.747 722.971 251.043C722.971 251.3 723.064 251.512 723.25 251.678C723.432 251.844 723.907 252.015 724.675 252.19C725.447 252.363 725.976 252.514 726.262 252.645C726.679 252.837 726.987 253.081 727.185 253.377C727.384 253.67 727.483 254.008 727.483 254.393C727.483 254.773 727.374 255.133 727.156 255.472C726.938 255.807 726.624 256.069 726.214 256.258C725.807 256.443 725.348 256.536 724.837 256.536C724.189 256.536 723.645 256.442 723.206 256.253C722.77 256.064 722.426 255.781 722.175 255.403C721.928 255.022 721.798 254.593 721.785 254.114ZM731.238 254.114L732.132 254.036C732.174 254.394 732.271 254.689 732.424 254.92C732.581 255.148 732.822 255.333 733.147 255.477C733.473 255.617 733.839 255.687 734.246 255.687C734.607 255.687 734.926 255.633 735.203 255.525C735.479 255.418 735.685 255.271 735.818 255.086C735.955 254.897 736.023 254.692 736.023 254.471C736.023 254.246 735.958 254.051 735.828 253.885C735.698 253.715 735.483 253.574 735.183 253.46C734.991 253.385 734.566 253.27 733.909 253.113C733.251 252.954 732.791 252.804 732.527 252.664C732.185 252.485 731.93 252.264 731.76 252C731.594 251.733 731.511 251.435 731.511 251.106C731.511 250.745 731.614 250.408 731.819 250.096C732.024 249.78 732.324 249.541 732.717 249.378C733.111 249.215 733.549 249.134 734.031 249.134C734.562 249.134 735.029 249.22 735.432 249.393C735.839 249.562 736.152 249.812 736.37 250.145C736.588 250.477 736.705 250.853 736.721 251.272L735.813 251.341C735.764 250.888 735.598 250.547 735.315 250.315C735.035 250.084 734.62 249.969 734.07 249.969C733.497 249.969 733.079 250.075 732.815 250.286C732.555 250.494 732.424 250.747 732.424 251.043C732.424 251.3 732.517 251.512 732.703 251.678C732.885 251.844 733.36 252.015 734.129 252.19C734.9 252.363 735.429 252.514 735.715 252.645C736.132 252.837 736.44 253.081 736.638 253.377C736.837 253.67 736.936 254.008 736.936 254.393C736.936 254.773 736.827 255.133 736.609 255.472C736.391 255.807 736.077 256.069 735.667 256.258C735.26 256.443 734.801 256.536 734.29 256.536C733.642 256.536 733.098 256.442 732.659 256.253C732.223 256.064 731.879 255.781 731.629 255.403C731.381 255.022 731.251 254.593 731.238 254.114ZM738.25 256.414V249.256H743.425V250.101H739.197V252.293H743.157V253.133H739.197V255.569H743.591V256.414H738.25ZM744.173 256.414L746.941 252.684L744.5 249.256H745.628L746.926 251.092C747.197 251.473 747.389 251.766 747.503 251.971C747.662 251.71 747.851 251.438 748.069 251.155L749.509 249.256H750.54L748.025 252.63L750.735 256.414H749.563L747.761 253.86C747.66 253.714 747.556 253.554 747.449 253.382C747.289 253.642 747.175 253.821 747.107 253.919L745.31 256.414H744.173ZM756.267 249.256H757.215V253.392C757.215 254.111 757.133 254.682 756.97 255.105C756.808 255.529 756.513 255.874 756.087 256.141C755.663 256.404 755.107 256.536 754.417 256.536C753.746 256.536 753.198 256.421 752.771 256.189C752.345 255.958 752.04 255.625 751.858 255.188C751.676 254.749 751.585 254.15 751.585 253.392V249.256H752.532V253.387C752.532 254.008 752.589 254.467 752.703 254.764C752.82 255.057 753.019 255.283 753.298 255.442C753.582 255.602 753.927 255.682 754.334 255.682C755.03 255.682 755.527 255.524 755.823 255.208C756.119 254.892 756.267 254.285 756.267 253.387V249.256ZM758.01 256.414L760.759 249.256H761.78L764.71 256.414H763.631L762.796 254.246H759.802L759.016 256.414H758.01ZM760.076 253.475H762.503L761.756 251.492C761.528 250.89 761.358 250.395 761.248 250.008C761.157 250.467 761.028 250.923 760.862 251.375L760.076 253.475ZM765.427 256.414V249.256H766.375V255.569H769.9V256.414H765.427ZM771.052 256.414V249.256H776.228V250.101H772V252.293H775.96V253.133H772V255.569H776.394V256.414H771.052ZM777.381 254.114L778.274 254.036C778.316 254.394 778.414 254.689 778.567 254.92C778.723 255.148 778.964 255.333 779.29 255.477C779.615 255.617 779.981 255.687 780.388 255.687C780.75 255.687 781.069 255.633 781.345 255.525C781.622 255.418 781.827 255.271 781.961 255.086C782.097 254.897 782.166 254.692 782.166 254.471C782.166 254.246 782.101 254.051 781.97 253.885C781.84 253.715 781.625 253.574 781.326 253.46C781.134 253.385 780.709 253.27 780.051 253.113C779.394 252.954 778.933 252.804 778.67 252.664C778.328 252.485 778.072 252.264 777.903 252C777.737 251.733 777.654 251.435 777.654 251.106C777.654 250.745 777.757 250.408 777.962 250.096C778.167 249.78 778.466 249.541 778.86 249.378C779.254 249.215 779.692 249.134 780.173 249.134C780.704 249.134 781.171 249.22 781.575 249.393C781.982 249.562 782.294 249.812 782.512 250.145C782.73 250.477 782.848 250.853 782.864 251.272L781.956 251.341C781.907 250.888 781.741 250.547 781.458 250.315C781.178 250.084 780.763 249.969 780.213 249.969C779.64 249.969 779.221 250.075 778.958 250.286C778.697 250.494 778.567 250.747 778.567 251.043C778.567 251.3 778.66 251.512 778.845 251.678C779.028 251.844 779.503 252.015 780.271 252.19C781.043 252.363 781.572 252.514 781.858 252.645C782.275 252.837 782.582 253.081 782.781 253.377C782.979 253.67 783.079 254.008 783.079 254.393C783.079 254.773 782.97 255.133 782.752 255.472C782.534 255.807 782.219 256.069 781.809 256.258C781.402 256.443 780.943 256.536 780.432 256.536C779.784 256.536 779.241 256.442 778.801 256.253C778.365 256.064 778.022 255.781 777.771 255.403C777.524 255.022 777.394 254.593 777.381 254.114Z" fill="black"/>
<path d="M471.509 394.164C437.891 394.164 405.649 380.819 381.878 357.064C358.106 333.31 344.751 301.092 344.751 267.499C344.751 233.905 358.106 201.688 381.878 177.933C405.649 154.179 437.891 140.834 471.509 140.834C505.127 140.834 537.368 154.179 561.139 177.933C584.911 201.688 598.266 233.905 598.266 267.499C598.266 301.092 584.911 333.31 561.139 357.064C537.368 380.819 505.127 394.164 471.509 394.164Z" fill="#BECE55"/>
<path d="M387.646 257.179V250.021H390.346C390.821 250.021 391.184 250.043 391.435 250.089C391.786 250.147 392.081 250.26 392.318 250.426C392.556 250.589 392.746 250.818 392.89 251.114C393.036 251.41 393.109 251.736 393.109 252.091C393.109 252.7 392.916 253.215 392.528 253.639C392.141 254.059 391.441 254.269 390.429 254.269H388.593V257.179H387.646ZM388.593 253.424H390.443C391.055 253.424 391.49 253.31 391.747 253.082C392.004 252.854 392.133 252.534 392.133 252.12C392.133 251.821 392.056 251.565 391.903 251.354C391.754 251.139 391.555 250.997 391.308 250.929C391.148 250.886 390.854 250.865 390.424 250.865H388.593V253.424ZM394.335 257.179V250.021H399.511V250.865H395.282V253.058H399.242V253.897H395.282V256.334H399.677V257.179H394.335ZM401 257.179V250.021H404.174C404.812 250.021 405.297 250.086 405.629 250.216C405.961 250.343 406.226 250.569 406.425 250.895C406.623 251.22 406.723 251.58 406.723 251.974C406.723 252.481 406.558 252.91 406.23 253.258C405.901 253.606 405.393 253.827 404.706 253.922C404.957 254.042 405.147 254.161 405.277 254.278C405.554 254.532 405.816 254.85 406.064 255.23L407.309 257.179H406.117L405.17 255.689C404.893 255.26 404.665 254.931 404.486 254.703C404.307 254.475 404.146 254.316 404.003 254.225C403.863 254.133 403.72 254.07 403.573 254.034C403.466 254.011 403.29 254 403.046 254H401.947V257.179H401ZM401.947 253.18H403.983C404.416 253.18 404.755 253.136 404.999 253.048C405.243 252.957 405.429 252.813 405.556 252.618C405.683 252.42 405.746 252.205 405.746 251.974C405.746 251.635 405.622 251.357 405.375 251.139C405.131 250.921 404.744 250.812 404.213 250.812H401.947V253.18ZM407.89 254.879L408.783 254.801C408.826 255.159 408.923 255.453 409.076 255.685C409.232 255.912 409.473 256.098 409.799 256.241C410.124 256.381 410.491 256.451 410.898 256.451C411.259 256.451 411.578 256.397 411.855 256.29C412.131 256.183 412.336 256.036 412.47 255.851C412.607 255.662 412.675 255.457 412.675 255.235C412.675 255.011 412.61 254.815 412.48 254.649C412.349 254.48 412.135 254.339 411.835 254.225C411.643 254.15 411.218 254.034 410.561 253.878C409.903 253.718 409.442 253.569 409.179 253.429C408.837 253.25 408.581 253.028 408.412 252.765C408.246 252.498 408.163 252.2 408.163 251.871C408.163 251.51 408.266 251.173 408.471 250.86C408.676 250.545 408.975 250.305 409.369 250.143C409.763 249.98 410.201 249.898 410.683 249.898C411.213 249.898 411.68 249.985 412.084 250.157C412.491 250.326 412.803 250.577 413.022 250.909C413.24 251.241 413.357 251.617 413.373 252.037L412.465 252.105C412.416 251.653 412.25 251.311 411.967 251.08C411.687 250.849 411.272 250.733 410.722 250.733C410.149 250.733 409.731 250.839 409.467 251.051C409.206 251.259 409.076 251.511 409.076 251.808C409.076 252.065 409.169 252.276 409.355 252.442C409.537 252.608 410.012 252.779 410.78 252.955C411.552 253.128 412.081 253.279 412.367 253.409C412.784 253.601 413.092 253.845 413.29 254.142C413.489 254.435 413.588 254.773 413.588 255.157C413.588 255.538 413.479 255.898 413.261 256.236C413.043 256.572 412.729 256.834 412.318 257.022C411.912 257.208 411.453 257.301 410.941 257.301C410.294 257.301 409.75 257.206 409.311 257.018C408.874 256.829 408.531 256.546 408.28 256.168C408.033 255.787 407.903 255.357 407.89 254.879ZM414.594 253.692C414.594 252.504 414.913 251.575 415.551 250.904C416.189 250.23 417.012 249.894 418.022 249.894C418.682 249.894 419.278 250.051 419.809 250.367C420.339 250.683 420.743 251.124 421.02 251.69C421.3 252.254 421.44 252.893 421.44 253.609C421.44 254.335 421.293 254.985 421 255.558C420.707 256.131 420.292 256.565 419.755 256.861C419.218 257.154 418.638 257.301 418.017 257.301C417.343 257.301 416.741 257.138 416.21 256.812C415.679 256.487 415.277 256.043 415.004 255.479C414.731 254.916 414.594 254.321 414.594 253.692ZM415.57 253.707C415.57 254.57 415.801 255.25 416.264 255.748C416.729 256.243 417.312 256.49 418.012 256.49C418.725 256.49 419.311 256.24 419.77 255.738C420.232 255.237 420.463 254.526 420.463 253.604C420.463 253.022 420.364 252.514 420.165 252.081C419.97 251.645 419.682 251.308 419.301 251.07C418.923 250.829 418.498 250.709 418.026 250.709C417.356 250.709 416.778 250.94 416.293 251.402C415.811 251.861 415.57 252.63 415.57 253.707ZM422.655 257.179V250.021H423.627L427.387 255.641V250.021H428.295V257.179H427.323L423.564 251.554V257.179H422.655ZM429.106 257.179L431.855 250.021H432.875L435.805 257.179H434.726L433.891 255.011H430.898L430.111 257.179H429.106ZM431.171 254.239H433.598L432.851 252.257C432.623 251.655 432.454 251.16 432.343 250.772C432.252 251.231 432.123 251.687 431.957 252.14L431.171 254.239ZM436.523 257.179V250.021H437.47V256.334H440.995V257.179H436.523ZM449.648 254.669L450.595 254.908C450.396 255.686 450.038 256.28 449.521 256.69C449.006 257.097 448.376 257.301 447.631 257.301C446.859 257.301 446.231 257.145 445.746 256.832C445.264 256.516 444.897 256.061 444.643 255.465C444.392 254.869 444.267 254.229 444.267 253.546C444.267 252.8 444.408 252.151 444.691 251.598C444.978 251.041 445.383 250.619 445.907 250.333C446.435 250.043 447.014 249.898 447.646 249.898C448.362 249.898 448.964 250.081 449.452 250.445C449.94 250.81 450.281 251.323 450.473 251.983L449.54 252.203C449.374 251.682 449.133 251.303 448.817 251.065C448.502 250.828 448.105 250.709 447.626 250.709C447.076 250.709 446.615 250.841 446.244 251.104C445.876 251.368 445.618 251.723 445.468 252.169C445.318 252.612 445.243 253.069 445.243 253.541C445.243 254.15 445.331 254.682 445.507 255.138C445.686 255.59 445.963 255.929 446.337 256.153C446.711 256.378 447.117 256.49 447.553 256.49C448.083 256.49 448.533 256.337 448.9 256.031C449.268 255.725 449.517 255.271 449.648 254.669ZM451.928 257.179V250.021H452.875V257.179H451.928ZM456.596 257.179L453.822 250.021H454.848L456.708 255.221C456.858 255.637 456.983 256.028 457.084 256.393C457.195 256.002 457.323 255.611 457.47 255.221L459.403 250.021H460.37L457.567 257.179H456.596ZM461.381 257.179V250.021H462.328V257.179H461.381ZM463.964 257.179V250.021H464.911V256.334H468.437V257.179H463.964ZM471.982 257.179V250.021H474.447C475.004 250.021 475.429 250.055 475.722 250.123C476.132 250.217 476.482 250.388 476.772 250.636C477.149 250.955 477.431 251.363 477.616 251.861C477.805 252.356 477.899 252.923 477.899 253.561C477.899 254.104 477.836 254.586 477.709 255.006C477.582 255.426 477.419 255.774 477.221 256.051C477.022 256.324 476.804 256.541 476.566 256.7C476.332 256.856 476.047 256.975 475.712 257.057C475.38 257.138 474.997 257.179 474.565 257.179H471.982ZM472.929 256.334H474.457C474.929 256.334 475.299 256.29 475.565 256.202C475.836 256.114 476.051 255.991 476.21 255.831C476.435 255.606 476.609 255.305 476.732 254.928C476.859 254.547 476.923 254.086 476.923 253.546C476.923 252.797 476.799 252.223 476.552 251.822C476.308 251.419 476.01 251.148 475.658 251.012C475.404 250.914 474.996 250.865 474.433 250.865H472.929V256.334ZM479.228 257.179V250.021H484.403V250.865H480.175V253.058H484.135V253.897H480.175V256.334H484.569V257.179H479.228ZM488.822 257.179V250.021H489.77V257.179H488.822ZM491.435 257.179V250.021H492.406L496.166 255.641V250.021H497.074V257.179H496.103L492.343 251.554V257.179H491.435ZM500.492 257.179V250.865H498.134V250.021H503.808V250.865H501.44V257.179H500.492ZM504.804 257.179V250.021H509.98V250.865H505.751V253.058H509.711V253.897H505.751V256.334H510.146V257.179H504.804ZM511.415 257.179V250.021H512.362V256.334H515.888V257.179H511.415ZM517.182 257.179V250.021H518.129V257.179H517.182ZM523.153 254.371V253.531L526.186 253.526V256.183C525.72 256.554 525.24 256.834 524.745 257.022C524.25 257.208 523.743 257.301 523.222 257.301C522.519 257.301 521.879 257.151 521.303 256.852C520.73 256.549 520.297 256.113 520.004 255.543C519.711 254.973 519.565 254.337 519.565 253.634C519.565 252.937 519.709 252.288 519.999 251.686C520.292 251.08 520.712 250.631 521.259 250.338C521.806 250.045 522.436 249.898 523.148 249.898C523.666 249.898 524.133 249.983 524.55 250.152C524.97 250.318 525.299 250.551 525.536 250.851C525.774 251.15 525.954 251.541 526.078 252.022L525.224 252.257C525.116 251.892 524.983 251.606 524.823 251.397C524.664 251.189 524.436 251.023 524.14 250.899C523.843 250.772 523.515 250.709 523.153 250.709C522.72 250.709 522.346 250.776 522.03 250.909C521.715 251.039 521.459 251.212 521.264 251.427C521.072 251.642 520.922 251.878 520.815 252.135C520.632 252.577 520.541 253.058 520.541 253.575C520.541 254.213 520.65 254.747 520.868 255.177C521.09 255.606 521.41 255.925 521.83 256.134C522.25 256.342 522.696 256.446 523.168 256.446C523.578 256.446 523.979 256.368 524.369 256.212C524.76 256.052 525.056 255.883 525.258 255.704V254.371H523.153ZM527.607 257.179V250.021H532.782V250.865H528.554V253.058H532.514V253.897H528.554V256.334H532.948V257.179H527.607ZM534.247 257.179V250.021H535.219L538.979 255.641V250.021H539.887V257.179H538.915L535.155 251.554V257.179H534.247ZM546.591 254.669L547.538 254.908C547.34 255.686 546.982 256.28 546.464 256.69C545.95 257.097 545.32 257.301 544.574 257.301C543.803 257.301 543.175 257.145 542.69 256.832C542.208 256.516 541.84 256.061 541.586 255.465C541.335 254.869 541.21 254.229 541.21 253.546C541.21 252.8 541.352 252.151 541.635 251.598C541.921 251.041 542.327 250.619 542.851 250.333C543.378 250.043 543.957 249.898 544.589 249.898C545.305 249.898 545.907 250.081 546.396 250.445C546.884 250.81 547.224 251.323 547.416 251.983L546.483 252.203C546.317 251.682 546.077 251.303 545.761 251.065C545.445 250.828 545.048 250.709 544.569 250.709C544.019 250.709 543.559 250.841 543.188 251.104C542.82 251.368 542.561 251.723 542.411 252.169C542.261 252.612 542.187 253.069 542.187 253.541C542.187 254.15 542.274 254.682 542.45 255.138C542.629 255.59 542.906 255.929 543.28 256.153C543.655 256.378 544.06 256.49 544.496 256.49C545.027 256.49 545.476 256.337 545.844 256.031C546.212 255.725 546.461 255.271 546.591 254.669ZM548.871 257.179V250.021H549.818V257.179H548.871ZM550.707 257.179L553.456 250.021H554.477L557.406 257.179H556.327L555.492 255.011H552.499L551.713 257.179H550.707ZM552.773 254.239H555.199L554.452 252.257C554.224 251.655 554.055 251.16 553.944 250.772C553.853 251.231 553.725 251.687 553.559 252.14L552.773 254.239Z" fill="black"/>
<path d="M625.159 573.01C597.71 573.01 571.385 562.114 551.976 542.718C532.566 523.323 521.662 497.017 521.662 469.588C521.662 442.159 532.566 415.854 551.976 396.458C571.385 377.063 597.71 366.167 625.159 366.167C652.608 366.167 678.933 377.063 698.342 396.458C717.752 415.854 728.656 442.159 728.656 469.588C728.656 497.017 717.752 523.323 698.342 542.718C678.933 562.114 652.608 573.01 625.159 573.01Z" fill="#BECE55"/>
<path d="M542.345 459.268V452.109H545.519C546.157 452.109 546.642 452.174 546.974 452.305C547.306 452.432 547.571 452.658 547.77 452.983C547.968 453.309 548.068 453.669 548.068 454.062C548.068 454.57 547.903 454.998 547.574 455.347C547.246 455.695 546.738 455.916 546.051 456.011C546.302 456.131 546.492 456.25 546.622 456.367C546.899 456.621 547.161 456.938 547.408 457.319L548.654 459.268H547.462L546.515 457.778C546.238 457.349 546.01 457.02 545.831 456.792C545.652 456.564 545.491 456.405 545.348 456.313C545.208 456.222 545.065 456.159 544.918 456.123C544.811 456.1 544.635 456.089 544.391 456.089H543.292V459.268H542.345ZM543.292 455.269H545.328C545.761 455.269 546.1 455.225 546.344 455.137C546.588 455.046 546.774 454.902 546.901 454.707C547.028 454.508 547.091 454.294 547.091 454.062C547.091 453.724 546.967 453.446 546.72 453.228C546.476 453.009 546.088 452.9 545.558 452.9H543.292V455.269ZM549.576 459.268V452.109H554.752V452.954H550.524V455.146H554.484V455.986H550.524V458.423H554.918V459.268H549.576ZM555.905 456.968L556.798 456.89C556.84 457.248 556.938 457.542 557.091 457.773C557.247 458.001 557.488 458.187 557.814 458.33C558.139 458.47 558.505 458.54 558.912 458.54C559.274 458.54 559.593 458.486 559.869 458.379C560.146 458.271 560.351 458.125 560.485 457.939C560.621 457.751 560.69 457.546 560.69 457.324C560.69 457.1 560.625 456.904 560.494 456.738C560.364 456.569 560.149 456.427 559.85 456.313C559.658 456.239 559.233 456.123 558.575 455.967C557.918 455.807 557.457 455.658 557.194 455.518C556.852 455.339 556.596 455.117 556.427 454.854C556.261 454.587 556.178 454.289 556.178 453.96C556.178 453.599 556.281 453.262 556.486 452.949C556.691 452.633 556.99 452.394 557.384 452.231C557.778 452.069 558.216 451.987 558.698 451.987C559.228 451.987 559.695 452.074 560.099 452.246C560.506 452.415 560.818 452.666 561.036 452.998C561.255 453.33 561.372 453.706 561.388 454.126L560.48 454.194C560.431 453.742 560.265 453.4 559.982 453.169C559.702 452.938 559.287 452.822 558.737 452.822C558.164 452.822 557.745 452.928 557.482 453.14C557.221 453.348 557.091 453.6 557.091 453.896C557.091 454.154 557.184 454.365 557.369 454.531C557.552 454.697 558.027 454.868 558.795 455.044C559.567 455.216 560.096 455.368 560.382 455.498C560.799 455.69 561.106 455.934 561.305 456.23C561.504 456.523 561.603 456.862 561.603 457.246C561.603 457.627 561.494 457.987 561.276 458.325C561.058 458.66 560.743 458.923 560.333 459.111C559.926 459.297 559.467 459.39 558.956 459.39C558.309 459.39 557.765 459.295 557.325 459.106C556.889 458.918 556.546 458.634 556.295 458.257C556.048 457.876 555.918 457.446 555.905 456.968ZM562.897 459.268V452.109H565.597C566.072 452.109 566.435 452.132 566.686 452.178C567.037 452.236 567.332 452.349 567.57 452.515C567.807 452.677 567.998 452.907 568.141 453.203C568.287 453.499 568.361 453.825 568.361 454.18C568.361 454.788 568.167 455.304 567.78 455.728C567.392 456.147 566.692 456.357 565.68 456.357H563.844V459.268H562.897ZM563.844 455.513H565.695C566.307 455.513 566.741 455.399 566.998 455.171C567.255 454.943 567.384 454.622 567.384 454.209C567.384 453.91 567.308 453.654 567.155 453.442C567.005 453.228 566.806 453.086 566.559 453.018C566.399 452.975 566.105 452.954 565.675 452.954H563.844V455.513ZM569.279 455.781C569.279 454.593 569.598 453.664 570.236 452.993C570.874 452.319 571.697 451.982 572.706 451.982C573.367 451.982 573.963 452.14 574.493 452.456C575.024 452.772 575.428 453.213 575.704 453.779C575.984 454.342 576.124 454.982 576.124 455.698C576.124 456.424 575.978 457.074 575.685 457.646C575.392 458.219 574.977 458.654 574.44 458.95C573.903 459.243 573.323 459.39 572.701 459.39C572.028 459.39 571.425 459.227 570.895 458.901C570.364 458.576 569.962 458.132 569.689 457.568C569.415 457.005 569.279 456.41 569.279 455.781ZM570.255 455.796C570.255 456.659 570.486 457.339 570.949 457.837C571.414 458.332 571.997 458.579 572.697 458.579C573.409 458.579 573.995 458.328 574.454 457.827C574.917 457.326 575.148 456.615 575.148 455.693C575.148 455.111 575.048 454.603 574.85 454.17C574.655 453.734 574.366 453.397 573.986 453.159C573.608 452.918 573.183 452.798 572.711 452.798C572.041 452.798 571.463 453.029 570.978 453.491C570.496 453.95 570.255 454.718 570.255 455.796ZM577.34 459.268V452.109H578.312L582.072 457.729V452.109H582.98V459.268H582.008L578.248 453.643V459.268H577.34ZM584.254 456.968L585.148 456.89C585.19 457.248 585.288 457.542 585.441 457.773C585.597 458.001 585.838 458.187 586.163 458.33C586.489 458.47 586.855 458.54 587.262 458.54C587.623 458.54 587.942 458.486 588.219 458.379C588.496 458.271 588.701 458.125 588.834 457.939C588.971 457.751 589.039 457.546 589.039 457.324C589.039 457.1 588.974 456.904 588.844 456.738C588.714 456.569 588.499 456.427 588.199 456.313C588.007 456.239 587.583 456.123 586.925 455.967C586.268 455.807 585.807 455.658 585.543 455.518C585.201 455.339 584.946 455.117 584.777 454.854C584.611 454.587 584.528 454.289 584.528 453.96C584.528 453.599 584.63 453.262 584.835 452.949C585.04 452.633 585.34 452.394 585.734 452.231C586.128 452.069 586.565 451.987 587.047 451.987C587.578 451.987 588.045 452.074 588.449 452.246C588.855 452.415 589.168 452.666 589.386 452.998C589.604 453.33 589.721 453.706 589.738 454.126L588.829 454.194C588.781 453.742 588.615 453.4 588.331 453.169C588.051 452.938 587.636 452.822 587.086 452.822C586.513 452.822 586.095 452.928 585.831 453.14C585.571 453.348 585.441 453.6 585.441 453.896C585.441 454.154 585.533 454.365 585.719 454.531C585.901 454.697 586.377 454.868 587.145 455.044C587.916 455.216 588.445 455.368 588.732 455.498C589.148 455.69 589.456 455.934 589.655 456.23C589.853 456.523 589.952 456.862 589.952 457.246C589.952 457.627 589.843 457.987 589.625 458.325C589.407 458.66 589.093 458.923 588.683 459.111C588.276 459.297 587.817 459.39 587.306 459.39C586.658 459.39 586.115 459.295 585.675 459.106C585.239 458.918 584.895 458.634 584.645 458.257C584.397 457.876 584.267 457.446 584.254 456.968ZM590.46 459.268L593.209 452.109H594.23L597.159 459.268H596.08L595.245 457.1H592.252L591.466 459.268H590.46ZM592.526 456.328H594.952L594.205 454.346C593.977 453.743 593.808 453.249 593.698 452.861C593.606 453.32 593.478 453.776 593.312 454.229L592.526 456.328ZM597.877 459.268V452.109H600.563C601.11 452.109 601.547 452.183 601.876 452.329C602.208 452.472 602.467 452.695 602.653 452.998C602.841 453.298 602.936 453.612 602.936 453.94C602.936 454.246 602.853 454.535 602.687 454.805C602.521 455.075 602.27 455.293 601.935 455.459C602.368 455.586 602.7 455.802 602.931 456.108C603.165 456.414 603.283 456.776 603.283 457.192C603.283 457.528 603.211 457.84 603.068 458.13C602.928 458.416 602.754 458.638 602.545 458.794C602.337 458.95 602.075 459.069 601.759 459.15C601.447 459.229 601.062 459.268 600.607 459.268H597.877ZM598.824 455.117H600.372C600.792 455.117 601.093 455.09 601.276 455.034C601.517 454.963 601.697 454.844 601.818 454.678C601.941 454.512 602.003 454.303 602.003 454.053C602.003 453.815 601.946 453.607 601.832 453.428C601.718 453.245 601.556 453.122 601.344 453.057C601.132 452.988 600.769 452.954 600.255 452.954H598.824V455.117ZM598.824 458.423H600.607C600.913 458.423 601.128 458.411 601.251 458.389C601.469 458.35 601.652 458.285 601.798 458.193C601.945 458.102 602.065 457.97 602.159 457.798C602.254 457.622 602.301 457.42 602.301 457.192C602.301 456.925 602.233 456.694 602.096 456.499C601.959 456.3 601.769 456.162 601.525 456.084C601.284 456.003 600.935 455.962 600.48 455.962H598.824V458.423ZM604.747 459.268V452.109H605.695V459.268H604.747ZM607.33 459.268V452.109H608.278V458.423H611.803V459.268H607.33ZM613.097 459.268V452.109H614.044V459.268H613.097ZM615.719 459.268V452.109H618.185C618.741 452.109 619.166 452.144 619.459 452.212C619.869 452.306 620.219 452.477 620.509 452.725C620.887 453.044 621.168 453.452 621.354 453.95C621.543 454.445 621.637 455.011 621.637 455.649C621.637 456.193 621.574 456.675 621.447 457.095C621.32 457.515 621.157 457.863 620.958 458.14C620.76 458.413 620.542 458.63 620.304 458.789C620.07 458.945 619.785 459.064 619.449 459.146C619.117 459.227 618.735 459.268 618.302 459.268H615.719ZM616.666 458.423H618.195C618.667 458.423 619.036 458.379 619.303 458.291C619.573 458.203 619.788 458.079 619.948 457.92C620.172 457.695 620.346 457.394 620.47 457.017C620.597 456.636 620.66 456.175 620.66 455.635C620.66 454.886 620.537 454.312 620.289 453.911C620.045 453.507 619.747 453.237 619.396 453.101C619.142 453.003 618.733 452.954 618.17 452.954H616.666V458.423ZM622.159 459.268L624.908 452.109H625.929L628.859 459.268H627.78L626.945 457.1H623.951L623.165 459.268H622.159ZM624.225 456.328H626.652L625.905 454.346C625.677 453.743 625.507 453.249 625.397 452.861C625.306 453.32 625.177 453.776 625.011 454.229L624.225 456.328ZM629.616 459.268V452.109H632.081C632.638 452.109 633.063 452.144 633.356 452.212C633.766 452.306 634.116 452.477 634.406 452.725C634.783 453.044 635.065 453.452 635.25 453.95C635.439 454.445 635.533 455.011 635.533 455.649C635.533 456.193 635.47 456.675 635.343 457.095C635.216 457.515 635.053 457.863 634.855 458.14C634.656 458.413 634.438 458.63 634.2 458.789C633.966 458.945 633.681 459.064 633.346 459.146C633.014 459.227 632.631 459.268 632.199 459.268H629.616ZM630.563 458.423H632.091C632.563 458.423 632.933 458.379 633.199 458.291C633.47 458.203 633.685 458.079 633.844 457.92C634.069 457.695 634.243 457.394 634.366 457.017C634.493 456.636 634.557 456.175 634.557 455.635C634.557 454.886 634.433 454.312 634.186 453.911C633.942 453.507 633.644 453.237 633.292 453.101C633.038 453.003 632.63 452.954 632.067 452.954H630.563V458.423ZM639.645 459.268V452.109H644.821V452.954H640.592V455.146H644.552V455.986H640.592V458.423H644.987V459.268H639.645ZM646.266 459.268V452.109H647.692L649.386 457.178C649.542 457.65 649.656 458.003 649.728 458.237C649.809 457.977 649.936 457.594 650.109 457.09L651.823 452.109H653.097V459.268H652.184V453.276L650.104 459.268H649.249L647.179 453.174V459.268H646.266ZM654.625 459.268V452.109H657.325C657.801 452.109 658.164 452.132 658.414 452.178C658.766 452.236 659.06 452.349 659.298 452.515C659.536 452.677 659.726 452.907 659.869 453.203C660.016 453.499 660.089 453.825 660.089 454.18C660.089 454.788 659.895 455.304 659.508 455.728C659.121 456.147 658.421 456.357 657.408 456.357H655.573V459.268H654.625ZM655.573 455.513H657.423C658.035 455.513 658.47 455.399 658.727 455.171C658.984 454.943 659.113 454.622 659.113 454.209C659.113 453.91 659.036 453.654 658.883 453.442C658.733 453.228 658.535 453.086 658.287 453.018C658.128 452.975 657.833 452.954 657.404 452.954H655.573V455.513ZM661.31 459.268V452.109H664.484C665.122 452.109 665.607 452.174 665.939 452.305C666.271 452.432 666.536 452.658 666.735 452.983C666.933 453.309 667.033 453.669 667.033 454.062C667.033 454.57 666.868 454.998 666.539 455.347C666.211 455.695 665.703 455.916 665.016 456.011C665.267 456.131 665.457 456.25 665.587 456.367C665.864 456.621 666.126 456.938 666.373 457.319L667.618 459.268H666.427L665.48 457.778C665.203 457.349 664.975 457.02 664.796 456.792C664.617 456.564 664.456 456.405 664.313 456.313C664.173 456.222 664.03 456.159 663.883 456.123C663.776 456.1 663.6 456.089 663.356 456.089H662.257V459.268H661.31ZM662.257 455.269H664.293C664.726 455.269 665.065 455.225 665.309 455.137C665.553 455.046 665.739 454.902 665.866 454.707C665.992 454.508 666.056 454.294 666.056 454.062C666.056 453.724 665.932 453.446 665.685 453.228C665.441 453.009 665.053 452.9 664.523 452.9H662.257V455.269ZM668.541 459.268V452.109H673.717V452.954H669.489V455.146H673.449V455.986H669.489V458.423H673.883V459.268H668.541ZM674.869 456.968L675.763 456.89C675.805 457.248 675.903 457.542 676.056 457.773C676.212 458.001 676.453 458.187 676.779 458.33C677.104 458.47 677.47 458.54 677.877 458.54C678.239 458.54 678.558 458.486 678.834 458.379C679.111 458.271 679.316 458.125 679.449 457.939C679.586 457.751 679.655 457.546 679.655 457.324C679.655 457.1 679.589 456.904 679.459 456.738C679.329 456.569 679.114 456.427 678.815 456.313C678.623 456.239 678.198 456.123 677.54 455.967C676.883 455.807 676.422 455.658 676.158 455.518C675.817 455.339 675.561 455.117 675.392 454.854C675.226 454.587 675.143 454.289 675.143 453.96C675.143 453.599 675.245 453.262 675.45 452.949C675.656 452.633 675.955 452.394 676.349 452.231C676.743 452.069 677.181 451.987 677.662 451.987C678.193 451.987 678.66 452.074 679.064 452.246C679.471 452.415 679.783 452.666 680.001 452.998C680.219 453.33 680.337 453.706 680.353 454.126L679.445 454.194C679.396 453.742 679.23 453.4 678.947 453.169C678.667 452.938 678.252 452.822 677.701 452.822C677.129 452.822 676.71 452.928 676.447 453.14C676.186 453.348 676.056 453.6 676.056 453.896C676.056 454.154 676.149 454.365 676.334 454.531C676.517 454.697 676.992 454.868 677.76 455.044C678.532 455.216 679.06 455.368 679.347 455.498C679.764 455.69 680.071 455.934 680.27 456.23C680.468 456.523 680.568 456.862 680.568 457.246C680.568 457.627 680.459 457.987 680.241 458.325C680.022 458.66 679.708 458.923 679.298 459.111C678.891 459.297 678.432 459.39 677.921 459.39C677.273 459.39 676.73 459.295 676.29 459.106C675.854 458.918 675.511 458.634 675.26 458.257C675.013 457.876 674.882 457.446 674.869 456.968ZM681.075 459.268L683.824 452.109H684.845L687.775 459.268H686.696L685.861 457.1H682.867L682.081 459.268H681.075ZM683.141 456.328H685.568L684.821 454.346C684.593 453.743 684.423 453.249 684.313 452.861C684.222 453.32 684.093 453.776 683.927 454.229L683.141 456.328ZM688.546 459.268V452.109H691.72C692.358 452.109 692.843 452.174 693.175 452.305C693.507 452.432 693.772 452.658 693.971 452.983C694.17 453.309 694.269 453.669 694.269 454.062C694.269 454.57 694.104 454.998 693.776 455.347C693.447 455.695 692.939 455.916 692.252 456.011C692.503 456.131 692.693 456.25 692.824 456.367C693.1 456.621 693.362 456.938 693.61 457.319L694.855 459.268H693.663L692.716 457.778C692.439 457.349 692.212 457.02 692.033 456.792C691.853 456.564 691.692 456.405 691.549 456.313C691.409 456.222 691.266 456.159 691.119 456.123C691.012 456.1 690.836 456.089 690.592 456.089H689.493V459.268H688.546ZM689.493 455.269H691.53C691.963 455.269 692.301 455.225 692.545 455.137C692.789 455.046 692.975 454.902 693.102 454.707C693.229 454.508 693.292 454.294 693.292 454.062C693.292 453.724 693.169 453.446 692.921 453.228C692.677 453.009 692.29 452.9 691.759 452.9H689.493V455.269ZM695.919 459.268V452.109H696.866V459.268H695.919ZM697.755 459.268L700.504 452.109H701.525L704.454 459.268H703.375L702.54 457.1H699.547L698.761 459.268H697.755ZM699.821 456.328H702.247L701.5 454.346C701.272 453.743 701.103 453.249 700.992 452.861C700.901 453.32 700.773 453.776 700.607 454.229L699.821 456.328ZM705.172 459.268V452.109H706.119V458.423H709.645V459.268H705.172Z" fill="black"/>
<path d="M344.953 170.093C325.543 170.093 306.929 162.388 293.204 148.674C279.48 134.959 271.769 116.358 271.769 96.963C271.769 77.5677 279.48 58.9668 293.204 45.2523C306.929 31.5377 325.543 23.833 344.953 23.833C364.362 23.833 382.976 31.5377 396.701 45.2523C410.426 58.9668 418.136 77.5677 418.136 96.963C418.136 116.358 410.426 134.959 396.701 148.674C382.976 162.388 364.362 170.093 344.953 170.093Z" fill="#BECE55"/>
<path d="M285.201 86.6416V79.4834H288.374C289.012 79.4834 289.497 79.5485 289.83 79.6787C290.162 79.8057 290.427 80.0319 290.625 80.3574C290.824 80.6829 290.923 81.0426 290.923 81.4365C290.923 81.9443 290.759 82.3724 290.43 82.7207C290.101 83.069 289.594 83.2904 288.907 83.3848C289.157 83.5052 289.348 83.624 289.478 83.7412C289.755 83.9951 290.017 84.3125 290.264 84.6934L291.509 86.6416H290.318L289.371 85.1523C289.094 84.7227 288.866 84.3939 288.687 84.166C288.508 83.9382 288.347 83.7786 288.204 83.6875C288.064 83.5964 287.92 83.5329 287.774 83.4971C287.666 83.4743 287.491 83.4629 287.247 83.4629H286.148V86.6416H285.201ZM286.148 82.6426H288.184C288.617 82.6426 288.956 82.5986 289.2 82.5107C289.444 82.4196 289.629 82.2764 289.756 82.0811C289.883 81.8825 289.947 81.6676 289.947 81.4365C289.947 81.098 289.823 80.8197 289.576 80.6016C289.331 80.3835 288.944 80.2744 288.414 80.2744H286.148V82.6426ZM292.432 86.6416V79.4834H297.608V80.3281H293.379V82.5205H297.339V83.3604H293.379V85.7969H297.774V86.6416H292.432ZM298.76 84.3418L299.654 84.2637C299.696 84.6217 299.794 84.9163 299.947 85.1475C300.103 85.3753 300.344 85.5609 300.669 85.7041C300.995 85.8441 301.361 85.9141 301.768 85.9141C302.129 85.9141 302.448 85.8604 302.725 85.7529C303.002 85.6455 303.207 85.499 303.34 85.3135C303.477 85.1247 303.545 84.9196 303.545 84.6982C303.545 84.4736 303.48 84.2783 303.35 84.1123C303.22 83.943 303.005 83.8014 302.706 83.6875C302.513 83.6126 302.089 83.4971 301.431 83.3408C300.774 83.1813 300.313 83.0316 300.049 82.8916C299.707 82.7126 299.452 82.4912 299.283 82.2275C299.117 81.9606 299.034 81.6628 299.034 81.334C299.034 80.9727 299.136 80.6357 299.341 80.3232C299.546 80.0075 299.846 79.7682 300.24 79.6055C300.634 79.4427 301.071 79.3613 301.553 79.3613C302.084 79.3613 302.551 79.4476 302.955 79.6201C303.361 79.7894 303.674 80.04 303.892 80.3721C304.11 80.7041 304.227 81.0801 304.244 81.5L303.335 81.5684C303.287 81.1159 303.121 80.7741 302.837 80.543C302.557 80.3118 302.142 80.1963 301.592 80.1963C301.019 80.1963 300.601 80.3021 300.337 80.5137C300.077 80.722 299.947 80.9743 299.947 81.2705C299.947 81.5277 300.039 81.7393 300.225 81.9053C300.407 82.0713 300.883 82.2422 301.651 82.418C302.422 82.5905 302.951 82.7419 303.238 82.8721C303.654 83.0641 303.962 83.3083 304.161 83.6045C304.359 83.8975 304.458 84.236 304.458 84.6201C304.458 85.001 304.349 85.3607 304.131 85.6992C303.913 86.0345 303.599 86.2965 303.189 86.4854C302.782 86.6709 302.323 86.7637 301.812 86.7637C301.164 86.7637 300.621 86.6693 300.181 86.4805C299.745 86.2917 299.401 86.0085 299.151 85.6309C298.903 85.25 298.773 84.8203 298.76 84.3418ZM305.752 86.6416V79.4834H308.453C308.928 79.4834 309.291 79.5062 309.541 79.5518C309.893 79.6104 310.188 79.7227 310.425 79.8887C310.663 80.0514 310.853 80.2809 310.997 80.5771C311.143 80.8734 311.216 81.1989 311.216 81.5537C311.216 82.1624 311.023 82.6784 310.635 83.1016C310.248 83.5215 309.548 83.7314 308.536 83.7314H306.7V86.6416H305.752ZM306.7 82.8867H308.55C309.162 82.8867 309.597 82.7728 309.854 82.5449C310.111 82.3171 310.24 81.9964 310.24 81.583C310.24 81.2835 310.163 81.028 310.01 80.8164C309.86 80.6016 309.662 80.46 309.414 80.3916C309.255 80.3493 308.96 80.3281 308.531 80.3281H306.7V82.8867ZM312.134 83.1553C312.134 81.9671 312.453 81.0378 313.091 80.3672C313.729 79.6934 314.553 79.3564 315.562 79.3564C316.223 79.3564 316.818 79.5143 317.349 79.8301C317.88 80.1458 318.283 80.5869 318.56 81.1533C318.84 81.7165 318.98 82.3561 318.98 83.0723C318.98 83.7982 318.833 84.4476 318.54 85.0205C318.247 85.5934 317.832 86.028 317.295 86.3242C316.758 86.6172 316.179 86.7637 315.557 86.7637C314.883 86.7637 314.281 86.6009 313.75 86.2754C313.22 85.9499 312.818 85.5055 312.544 84.9424C312.271 84.3792 312.134 83.7835 312.134 83.1553ZM313.111 83.1699C313.111 84.0326 313.342 84.7129 313.804 85.2109C314.27 85.7057 314.852 85.9531 315.552 85.9531C316.265 85.9531 316.851 85.7025 317.31 85.2012C317.772 84.6999 318.003 83.9886 318.003 83.0674C318.003 82.4847 317.904 81.9769 317.706 81.5439C317.51 81.1077 317.222 80.7708 316.841 80.5332C316.464 80.2923 316.039 80.1719 315.567 80.1719C314.896 80.1719 314.318 80.403 313.833 80.8652C313.352 81.3242 313.111 82.0924 313.111 83.1699ZM320.196 86.6416V79.4834H321.167L324.927 85.1035V79.4834H325.835V86.6416H324.864L321.104 81.0166V86.6416H320.196ZM327.11 84.3418L328.003 84.2637C328.046 84.6217 328.143 84.9163 328.296 85.1475C328.453 85.3753 328.693 85.5609 329.019 85.7041C329.345 85.8441 329.711 85.9141 330.118 85.9141C330.479 85.9141 330.798 85.8604 331.075 85.7529C331.351 85.6455 331.556 85.499 331.69 85.3135C331.827 85.1247 331.895 84.9196 331.895 84.6982C331.895 84.4736 331.83 84.2783 331.7 84.1123C331.569 83.943 331.355 83.8014 331.055 83.6875C330.863 83.6126 330.438 83.4971 329.781 83.3408C329.123 83.1813 328.663 83.0316 328.399 82.8916C328.057 82.7126 327.802 82.4912 327.632 82.2275C327.466 81.9606 327.383 81.6628 327.383 81.334C327.383 80.9727 327.486 80.6357 327.691 80.3232C327.896 80.0075 328.195 79.7682 328.589 79.6055C328.983 79.4427 329.421 79.3613 329.903 79.3613C330.433 79.3613 330.9 79.4476 331.304 79.6201C331.711 79.7894 332.024 80.04 332.242 80.3721C332.46 80.7041 332.577 81.0801 332.593 81.5L331.685 81.5684C331.636 81.1159 331.47 80.7741 331.187 80.543C330.907 80.3118 330.492 80.1963 329.942 80.1963C329.369 80.1963 328.951 80.3021 328.687 80.5137C328.427 80.722 328.296 80.9743 328.296 81.2705C328.296 81.5277 328.389 81.7393 328.575 81.9053C328.757 82.0713 329.232 82.2422 330 82.418C330.772 82.5905 331.301 82.7419 331.587 82.8721C332.004 83.0641 332.312 83.3083 332.51 83.6045C332.709 83.8975 332.808 84.236 332.808 84.6201C332.808 85.001 332.699 85.3607 332.481 85.6992C332.263 86.0345 331.949 86.2965 331.539 86.4854C331.132 86.6709 330.673 86.7637 330.162 86.7637C329.514 86.7637 328.97 86.6693 328.531 86.4805C328.095 86.2917 327.751 86.0085 327.5 85.6309C327.253 85.25 327.123 84.8203 327.11 84.3418ZM333.316 86.6416L336.065 79.4834H337.085L340.015 86.6416H338.936L338.101 84.4736H335.108L334.322 86.6416H333.316ZM335.381 83.7021H337.808L337.061 81.7197C336.833 81.1175 336.664 80.6227 336.553 80.2354C336.462 80.6943 336.333 81.1501 336.167 81.6025L335.381 83.7021ZM340.733 86.6416V79.4834H343.418C343.965 79.4834 344.403 79.5566 344.732 79.7031C345.064 79.8464 345.323 80.0693 345.508 80.3721C345.697 80.6715 345.791 80.9857 345.791 81.3145C345.791 81.6204 345.708 81.9085 345.542 82.1787C345.376 82.4489 345.126 82.667 344.79 82.833C345.223 82.96 345.555 83.1764 345.787 83.4824C346.021 83.7884 346.138 84.1497 346.138 84.5664C346.138 84.9017 346.067 85.2142 345.923 85.5039C345.783 85.7904 345.609 86.0117 345.401 86.168C345.192 86.3242 344.93 86.443 344.615 86.5244C344.302 86.6025 343.918 86.6416 343.462 86.6416H340.733ZM341.68 82.4912H343.228C343.648 82.4912 343.949 82.4635 344.131 82.4082C344.372 82.3366 344.553 82.2178 344.673 82.0518C344.797 81.8857 344.859 81.6774 344.859 81.4268C344.859 81.1891 344.802 80.9808 344.688 80.8018C344.574 80.6195 344.411 80.4958 344.2 80.4307C343.988 80.3623 343.625 80.3281 343.111 80.3281H341.68V82.4912ZM341.68 85.7969H343.462C343.768 85.7969 343.983 85.7855 344.107 85.7627C344.325 85.7236 344.507 85.6585 344.654 85.5674C344.8 85.4762 344.921 85.3444 345.015 85.1719C345.109 84.9961 345.157 84.7943 345.157 84.5664C345.157 84.2995 345.088 84.0684 344.952 83.873C344.815 83.6745 344.624 83.5361 344.38 83.458C344.139 83.3766 343.791 83.3359 343.335 83.3359H341.68V85.7969ZM347.603 86.6416V79.4834H348.55V86.6416H347.603ZM350.186 86.6416V79.4834H351.133V85.7969H354.659V86.6416H350.186ZM355.953 86.6416V79.4834H356.9V86.6416H355.953ZM358.575 86.6416V79.4834H361.04C361.597 79.4834 362.022 79.5176 362.315 79.5859C362.725 79.6803 363.075 79.8512 363.365 80.0986C363.742 80.4176 364.024 80.8262 364.209 81.3242C364.398 81.819 364.493 82.3854 364.493 83.0234C364.493 83.5671 364.429 84.0488 364.302 84.4688C364.175 84.8887 364.012 85.237 363.814 85.5137C363.615 85.7871 363.397 86.0036 363.16 86.1631C362.925 86.3193 362.64 86.4382 362.305 86.5195C361.973 86.6009 361.591 86.6416 361.158 86.6416H358.575ZM359.522 85.7969H361.05C361.522 85.7969 361.892 85.7529 362.159 85.665C362.429 85.5771 362.644 85.4535 362.803 85.2939C363.028 85.0693 363.202 84.7682 363.326 84.3906C363.453 84.0098 363.516 83.5492 363.516 83.0088C363.516 82.2601 363.392 81.6855 363.145 81.2852C362.901 80.8815 362.603 80.6113 362.251 80.4746C361.997 80.377 361.589 80.3281 361.026 80.3281H359.522V85.7969ZM365.015 86.6416L367.764 79.4834H368.785L371.714 86.6416H370.635L369.8 84.4736H366.807L366.021 86.6416H365.015ZM367.081 83.7021H369.507L368.76 81.7197C368.532 81.1175 368.363 80.6227 368.252 80.2354C368.161 80.6943 368.033 81.1501 367.867 81.6025L367.081 83.7021ZM372.471 86.6416V79.4834H374.937C375.494 79.4834 375.918 79.5176 376.211 79.5859C376.622 79.6803 376.971 79.8512 377.261 80.0986C377.639 80.4176 377.92 80.8262 378.106 81.3242C378.295 81.819 378.389 82.3854 378.389 83.0234C378.389 83.5671 378.326 84.0488 378.199 84.4688C378.072 84.8887 377.909 85.237 377.71 85.5137C377.512 85.7871 377.294 86.0036 377.056 86.1631C376.822 86.3193 376.537 86.4382 376.202 86.5195C375.87 86.6009 375.487 86.6416 375.054 86.6416H372.471ZM373.418 85.7969H374.947C375.419 85.7969 375.788 85.7529 376.055 85.665C376.325 85.5771 376.54 85.4535 376.7 85.2939C376.924 85.0693 377.098 84.7682 377.222 84.3906C377.349 84.0098 377.413 83.5492 377.413 83.0088C377.413 82.2601 377.289 81.6855 377.041 81.2852C376.797 80.8815 376.499 80.6113 376.148 80.4746C375.894 80.377 375.485 80.3281 374.922 80.3281H373.418V85.7969ZM387.588 84.1318L388.536 84.3711C388.337 85.1491 387.979 85.7432 387.461 86.1533C386.947 86.5602 386.317 86.7637 385.572 86.7637C384.8 86.7637 384.172 86.6074 383.687 86.2949C383.205 85.9792 382.837 85.5234 382.583 84.9277C382.333 84.332 382.207 83.6924 382.207 83.0088C382.207 82.2633 382.349 81.6139 382.632 81.0605C382.919 80.5039 383.324 80.0824 383.848 79.7959C384.375 79.5062 384.955 79.3613 385.586 79.3613C386.303 79.3613 386.905 79.5436 387.393 79.9082C387.881 80.2728 388.221 80.7855 388.414 81.4463L387.481 81.666C387.315 81.1452 387.074 80.766 386.758 80.5283C386.442 80.2907 386.045 80.1719 385.567 80.1719C385.017 80.1719 384.556 80.3037 384.185 80.5674C383.817 80.8311 383.558 81.1859 383.409 81.6318C383.259 82.0745 383.184 82.5319 383.184 83.0039C383.184 83.6126 383.272 84.1449 383.448 84.6006C383.627 85.0531 383.903 85.3916 384.278 85.6162C384.652 85.8408 385.057 85.9531 385.494 85.9531C386.024 85.9531 386.473 85.8001 386.841 85.4941C387.209 85.1882 387.458 84.734 387.588 84.1318ZM389.869 86.6416V79.4834H390.816V86.6416H389.869ZM394.537 86.6416L391.763 79.4834H392.789L394.649 84.6836C394.799 85.1003 394.924 85.4909 395.025 85.8555C395.136 85.4648 395.264 85.0742 395.411 84.6836L397.344 79.4834H398.311L395.508 86.6416H394.537ZM399.322 86.6416V79.4834H400.269V86.6416H399.322ZM401.905 86.6416V79.4834H402.852V85.7969H406.377V86.6416H401.905Z" fill="black"/>
<path d="M344.417 469.588C330.692 469.588 317.53 464.14 307.825 454.443C298.121 444.745 292.668 431.592 292.668 417.878C292.668 404.163 298.121 391.01 307.825 381.313C317.53 371.615 330.692 366.167 344.417 366.167C358.141 366.167 371.304 371.615 381.008 381.313C390.713 391.01 396.165 404.163 396.165 417.878C396.165 431.592 390.713 444.745 381.008 454.443C371.304 464.14 358.141 469.588 344.417 469.588Z" fill="#BECE55"/>
<path d="M274.314 407.559V400.4H277.488C278.126 400.4 278.611 400.465 278.943 400.596C279.275 400.723 279.541 400.949 279.739 401.274C279.938 401.6 280.037 401.96 280.037 402.354C280.037 402.861 279.873 403.289 279.544 403.638C279.215 403.986 278.707 404.207 278.02 404.302C278.271 404.422 278.462 404.541 278.592 404.658C278.868 404.912 279.13 405.229 279.378 405.61L280.623 407.559H279.432L278.484 406.069C278.208 405.64 277.98 405.311 277.801 405.083C277.622 404.855 277.461 404.696 277.317 404.604C277.177 404.513 277.034 404.45 276.888 404.414C276.78 404.391 276.604 404.38 276.36 404.38H275.262V407.559H274.314ZM275.262 403.56H277.298C277.731 403.56 278.069 403.516 278.313 403.428C278.558 403.337 278.743 403.193 278.87 402.998C278.997 402.799 279.061 402.585 279.061 402.354C279.061 402.015 278.937 401.737 278.689 401.519C278.445 401.3 278.058 401.191 277.527 401.191H275.262V403.56ZM281.546 407.559V400.4H286.722V401.245H282.493V403.438H286.453V404.277H282.493V406.714H286.888V407.559H281.546ZM287.874 405.259L288.768 405.181C288.81 405.539 288.908 405.833 289.061 406.064C289.217 406.292 289.458 406.478 289.783 406.621C290.109 406.761 290.475 406.831 290.882 406.831C291.243 406.831 291.562 406.777 291.839 406.67C292.116 406.562 292.321 406.416 292.454 406.23C292.591 406.042 292.659 405.837 292.659 405.615C292.659 405.391 292.594 405.195 292.464 405.029C292.334 404.86 292.119 404.718 291.819 404.604C291.627 404.53 291.202 404.414 290.545 404.258C289.887 404.098 289.427 403.949 289.163 403.809C288.821 403.63 288.566 403.408 288.396 403.145C288.23 402.878 288.147 402.58 288.147 402.251C288.147 401.89 288.25 401.553 288.455 401.24C288.66 400.924 288.96 400.685 289.353 400.522C289.747 400.36 290.185 400.278 290.667 400.278C291.198 400.278 291.665 400.365 292.068 400.537C292.475 400.706 292.788 400.957 293.006 401.289C293.224 401.621 293.341 401.997 293.357 402.417L292.449 402.485C292.4 402.033 292.234 401.691 291.951 401.46C291.671 401.229 291.256 401.113 290.706 401.113C290.133 401.113 289.715 401.219 289.451 401.431C289.191 401.639 289.061 401.891 289.061 402.188C289.061 402.445 289.153 402.656 289.339 402.822C289.521 402.988 289.996 403.159 290.765 403.335C291.536 403.507 292.065 403.659 292.352 403.789C292.768 403.981 293.076 404.225 293.274 404.521C293.473 404.814 293.572 405.153 293.572 405.537C293.572 405.918 293.463 406.278 293.245 406.616C293.027 406.951 292.713 407.214 292.303 407.402C291.896 407.588 291.437 407.681 290.926 407.681C290.278 407.681 289.734 407.586 289.295 407.397C288.859 407.209 288.515 406.925 288.265 406.548C288.017 406.167 287.887 405.737 287.874 405.259ZM294.866 407.559V400.4H297.566C298.042 400.4 298.405 400.423 298.655 400.469C299.007 400.527 299.301 400.64 299.539 400.806C299.777 400.968 299.967 401.198 300.11 401.494C300.257 401.79 300.33 402.116 300.33 402.471C300.33 403.079 300.136 403.595 299.749 404.019C299.362 404.438 298.662 404.648 297.649 404.648H295.813V407.559H294.866ZM295.813 403.804H297.664C298.276 403.804 298.711 403.69 298.968 403.462C299.225 403.234 299.353 402.913 299.353 402.5C299.353 402.201 299.277 401.945 299.124 401.733C298.974 401.519 298.776 401.377 298.528 401.309C298.369 401.266 298.074 401.245 297.644 401.245H295.813V403.804ZM301.248 404.072C301.248 402.884 301.567 401.955 302.205 401.284C302.843 400.61 303.667 400.273 304.676 400.273C305.337 400.273 305.932 400.431 306.463 400.747C306.993 401.063 307.397 401.504 307.674 402.07C307.954 402.633 308.094 403.273 308.094 403.989C308.094 404.715 307.947 405.365 307.654 405.938C307.361 406.51 306.946 406.945 306.409 407.241C305.872 407.534 305.293 407.681 304.671 407.681C303.997 407.681 303.395 407.518 302.864 407.192C302.334 406.867 301.932 406.423 301.658 405.859C301.385 405.296 301.248 404.701 301.248 404.072ZM302.225 404.087C302.225 404.95 302.456 405.63 302.918 406.128C303.383 406.623 303.966 406.87 304.666 406.87C305.379 406.87 305.965 406.619 306.424 406.118C306.886 405.617 307.117 404.906 307.117 403.984C307.117 403.402 307.018 402.894 306.819 402.461C306.624 402.025 306.336 401.688 305.955 401.45C305.577 401.209 305.153 401.089 304.681 401.089C304.01 401.089 303.432 401.32 302.947 401.782C302.465 402.241 302.225 403.009 302.225 404.087ZM309.31 407.559V400.4H310.281L314.041 406.021V400.4H314.949V407.559H313.977L310.218 401.934V407.559H309.31ZM316.224 405.259L317.117 405.181C317.159 405.539 317.257 405.833 317.41 406.064C317.566 406.292 317.807 406.478 318.133 406.621C318.458 406.761 318.824 406.831 319.231 406.831C319.593 406.831 319.912 406.777 320.188 406.67C320.465 406.562 320.67 406.416 320.804 406.23C320.94 406.042 321.009 405.837 321.009 405.615C321.009 405.391 320.944 405.195 320.813 405.029C320.683 404.86 320.468 404.718 320.169 404.604C319.977 404.53 319.552 404.414 318.894 404.258C318.237 404.098 317.776 403.949 317.513 403.809C317.171 403.63 316.915 403.408 316.746 403.145C316.58 402.878 316.497 402.58 316.497 402.251C316.497 401.89 316.6 401.553 316.805 401.24C317.01 400.924 317.309 400.685 317.703 400.522C318.097 400.36 318.535 400.278 319.017 400.278C319.547 400.278 320.014 400.365 320.418 400.537C320.825 400.706 321.137 400.957 321.355 401.289C321.574 401.621 321.691 401.997 321.707 402.417L320.799 402.485C320.75 402.033 320.584 401.691 320.301 401.46C320.021 401.229 319.606 401.113 319.056 401.113C318.483 401.113 318.064 401.219 317.801 401.431C317.54 401.639 317.41 401.891 317.41 402.188C317.41 402.445 317.503 402.656 317.688 402.822C317.871 402.988 318.346 403.159 319.114 403.335C319.886 403.507 320.415 403.659 320.701 403.789C321.118 403.981 321.425 404.225 321.624 404.521C321.823 404.814 321.922 405.153 321.922 405.537C321.922 405.918 321.813 406.278 321.595 406.616C321.377 406.951 321.062 407.214 320.652 407.402C320.245 407.588 319.786 407.681 319.275 407.681C318.628 407.681 318.084 407.586 317.644 407.397C317.208 407.209 316.865 406.925 316.614 406.548C316.367 406.167 316.237 405.737 316.224 405.259ZM322.43 407.559L325.179 400.4H326.199L329.129 407.559H328.05L327.215 405.391H324.222L323.436 407.559H322.43ZM324.495 404.619H326.922L326.175 402.637C325.947 402.035 325.778 401.54 325.667 401.152C325.576 401.611 325.447 402.067 325.281 402.52L324.495 404.619ZM329.847 407.559V400.4H332.532C333.079 400.4 333.517 400.474 333.846 400.62C334.178 400.763 334.436 400.986 334.622 401.289C334.811 401.589 334.905 401.903 334.905 402.231C334.905 402.537 334.822 402.826 334.656 403.096C334.49 403.366 334.24 403.584 333.904 403.75C334.337 403.877 334.669 404.093 334.9 404.399C335.135 404.705 335.252 405.067 335.252 405.483C335.252 405.819 335.18 406.131 335.037 406.421C334.897 406.707 334.723 406.929 334.515 407.085C334.306 407.241 334.044 407.36 333.728 407.441C333.416 407.52 333.032 407.559 332.576 407.559H329.847ZM330.794 403.408H332.342C332.762 403.408 333.063 403.381 333.245 403.325C333.486 403.254 333.667 403.135 333.787 402.969C333.911 402.803 333.973 402.594 333.973 402.344C333.973 402.106 333.916 401.898 333.802 401.719C333.688 401.536 333.525 401.413 333.313 401.348C333.102 401.279 332.739 401.245 332.225 401.245H330.794V403.408ZM330.794 406.714H332.576C332.882 406.714 333.097 406.702 333.221 406.68C333.439 406.641 333.621 406.576 333.768 406.484C333.914 406.393 334.034 406.261 334.129 406.089C334.223 405.913 334.27 405.711 334.27 405.483C334.27 405.216 334.202 404.985 334.065 404.79C333.929 404.591 333.738 404.453 333.494 404.375C333.253 404.294 332.905 404.253 332.449 404.253H330.794V406.714ZM336.717 407.559V400.4H337.664V407.559H336.717ZM339.3 407.559V400.4H340.247V406.714H343.772V407.559H339.3ZM345.066 407.559V400.4H346.014V407.559H345.066ZM347.688 407.559V400.4H350.154C350.711 400.4 351.136 400.435 351.429 400.503C351.839 400.597 352.189 400.768 352.478 401.016C352.856 401.335 353.138 401.743 353.323 402.241C353.512 402.736 353.606 403.302 353.606 403.94C353.606 404.484 353.543 404.966 353.416 405.386C353.289 405.806 353.126 406.154 352.928 406.431C352.729 406.704 352.511 406.921 352.273 407.08C352.039 407.236 351.754 407.355 351.419 407.437C351.087 407.518 350.704 407.559 350.271 407.559H347.688ZM348.636 406.714H350.164C350.636 406.714 351.005 406.67 351.272 406.582C351.543 406.494 351.757 406.37 351.917 406.211C352.142 405.986 352.316 405.685 352.439 405.308C352.566 404.927 352.63 404.466 352.63 403.926C352.63 403.177 352.506 402.603 352.259 402.202C352.015 401.799 351.717 401.528 351.365 401.392C351.111 401.294 350.703 401.245 350.14 401.245H348.636V406.714ZM354.129 407.559L356.878 400.4H357.898L360.828 407.559H359.749L358.914 405.391H355.921L355.135 407.559H354.129ZM356.194 404.619H358.621L357.874 402.637C357.646 402.035 357.477 401.54 357.366 401.152C357.275 401.611 357.146 402.067 356.98 402.52L356.194 404.619ZM361.585 407.559V400.4H364.051C364.607 400.4 365.032 400.435 365.325 400.503C365.735 400.597 366.085 400.768 366.375 401.016C366.753 401.335 367.034 401.743 367.22 402.241C367.408 402.736 367.503 403.302 367.503 403.94C367.503 404.484 367.439 404.966 367.312 405.386C367.186 405.806 367.023 406.154 366.824 406.431C366.626 406.704 366.408 406.921 366.17 407.08C365.936 407.236 365.651 407.355 365.315 407.437C364.983 407.518 364.601 407.559 364.168 407.559H361.585ZM362.532 406.714H364.061C364.533 406.714 364.902 406.67 365.169 406.582C365.439 406.494 365.654 406.37 365.813 406.211C366.038 405.986 366.212 405.685 366.336 405.308C366.463 404.927 366.526 404.466 366.526 403.926C366.526 403.177 366.403 402.603 366.155 402.202C365.911 401.799 365.613 401.528 365.262 401.392C365.008 401.294 364.599 401.245 364.036 401.245H362.532V406.714ZM371.111 405.527L371.966 405.41C371.989 405.957 372.091 406.331 372.273 406.533C372.456 406.735 372.708 406.836 373.03 406.836C373.268 406.836 373.473 406.782 373.645 406.675C373.818 406.564 373.937 406.416 374.002 406.23C374.067 406.042 374.1 405.742 374.1 405.332V400.4H375.047V405.278C375.047 405.877 374.974 406.341 374.827 406.67C374.684 406.999 374.454 407.249 374.139 407.422C373.826 407.594 373.458 407.681 373.035 407.681C372.407 407.681 371.925 407.5 371.59 407.139C371.258 406.777 371.098 406.24 371.111 405.527ZM381.292 400.4H382.239V404.536C382.239 405.256 382.158 405.827 381.995 406.25C381.832 406.673 381.538 407.018 381.111 407.285C380.688 407.549 380.131 407.681 379.441 407.681C378.771 407.681 378.222 407.565 377.796 407.334C377.369 407.103 377.065 406.769 376.883 406.333C376.7 405.894 376.609 405.295 376.609 404.536V400.4H377.557V404.531C377.557 405.153 377.614 405.612 377.727 405.908C377.845 406.201 378.043 406.427 378.323 406.587C378.606 406.746 378.951 406.826 379.358 406.826C380.055 406.826 380.551 406.668 380.848 406.353C381.144 406.037 381.292 405.43 381.292 404.531V400.4ZM383.821 407.559V400.4H386.287C386.844 400.4 387.269 400.435 387.561 400.503C387.972 400.597 388.322 400.768 388.611 401.016C388.989 401.335 389.27 401.743 389.456 402.241C389.645 402.736 389.739 403.302 389.739 403.94C389.739 404.484 389.676 404.966 389.549 405.386C389.422 405.806 389.259 406.154 389.061 406.431C388.862 406.704 388.644 406.921 388.406 407.08C388.172 407.236 387.887 407.355 387.552 407.437C387.22 407.518 386.837 407.559 386.404 407.559H383.821ZM384.769 406.714H386.297C386.769 406.714 387.138 406.67 387.405 406.582C387.675 406.494 387.89 406.37 388.05 406.211C388.274 405.986 388.449 405.685 388.572 405.308C388.699 404.927 388.763 404.466 388.763 403.926C388.763 403.177 388.639 402.603 388.392 402.202C388.147 401.799 387.85 401.528 387.498 401.392C387.244 401.294 386.836 401.245 386.272 401.245H384.769V406.714ZM391.209 407.559V400.4H392.156V407.559H391.209ZM398.938 405.049L399.886 405.288C399.687 406.066 399.329 406.66 398.811 407.07C398.297 407.477 397.667 407.681 396.922 407.681C396.15 407.681 395.522 407.524 395.037 407.212C394.555 406.896 394.187 406.44 393.934 405.845C393.683 405.249 393.558 404.609 393.558 403.926C393.558 403.18 393.699 402.531 393.982 401.978C394.269 401.421 394.674 400.999 395.198 400.713C395.726 400.423 396.305 400.278 396.936 400.278C397.653 400.278 398.255 400.461 398.743 400.825C399.231 401.19 399.572 401.702 399.764 402.363L398.831 402.583C398.665 402.062 398.424 401.683 398.108 401.445C397.793 401.208 397.395 401.089 396.917 401.089C396.367 401.089 395.906 401.221 395.535 401.484C395.167 401.748 394.908 402.103 394.759 402.549C394.609 402.992 394.534 403.449 394.534 403.921C394.534 404.53 394.622 405.062 394.798 405.518C394.977 405.97 395.254 406.309 395.628 406.533C396.002 406.758 396.408 406.87 396.844 406.87C397.374 406.87 397.824 406.717 398.191 406.411C398.559 406.105 398.808 405.651 398.938 405.049ZM401.219 407.559V400.4H402.166V407.559H401.219ZM403.055 407.559L405.804 400.4H406.824L409.754 407.559H408.675L407.84 405.391H404.847L404.061 407.559H403.055ZM405.12 404.619H407.547L406.8 402.637C406.572 402.035 406.403 401.54 406.292 401.152C406.201 401.611 406.072 402.067 405.906 402.52L405.12 404.619ZM410.472 407.559V400.4H411.419V406.714H414.944V407.559H410.472Z" fill="black"/>
<path d="M794.432 508.588C780.708 508.588 767.546 503.14 757.841 493.443C748.136 483.745 742.684 470.592 742.684 456.878C742.684 443.163 748.136 430.01 757.841 420.313C767.546 410.615 780.708 405.167 794.432 405.167C808.157 405.167 821.319 410.615 831.024 420.313C840.729 430.01 846.181 443.163 846.181 456.878C846.181 470.592 840.729 483.745 831.024 493.443C821.319 503.14 808.157 508.588 794.432 508.588Z" fill="#BECE55"/>
<path d="M730.466 444.257L731.36 444.179C731.402 444.537 731.5 444.831 731.653 445.062C731.809 445.29 732.05 445.476 732.376 445.619C732.701 445.759 733.067 445.829 733.474 445.829C733.836 445.829 734.155 445.775 734.431 445.668C734.708 445.561 734.913 445.414 735.047 445.229C735.183 445.04 735.252 444.835 735.252 444.613C735.252 444.389 735.187 444.193 735.056 444.027C734.926 443.858 734.711 443.716 734.412 443.603C734.22 443.528 733.795 443.412 733.137 443.256C732.48 443.096 732.019 442.947 731.756 442.807C731.414 442.628 731.158 442.406 730.989 442.143C730.823 441.876 730.74 441.578 730.74 441.249C730.74 440.888 730.842 440.551 731.048 440.238C731.253 439.923 731.552 439.683 731.946 439.521C732.34 439.358 732.778 439.276 733.259 439.276C733.79 439.276 734.257 439.363 734.661 439.535C735.068 439.704 735.38 439.955 735.598 440.287C735.816 440.619 735.934 440.995 735.95 441.415L735.042 441.483C734.993 441.031 734.827 440.689 734.544 440.458C734.264 440.227 733.849 440.111 733.299 440.111C732.726 440.111 732.307 440.217 732.044 440.429C731.783 440.637 731.653 440.889 731.653 441.186C731.653 441.443 731.746 441.654 731.931 441.82C732.114 441.986 732.589 442.157 733.357 442.333C734.129 442.506 734.658 442.657 734.944 442.787C735.361 442.979 735.668 443.223 735.867 443.52C736.065 443.812 736.165 444.151 736.165 444.535C736.165 444.916 736.056 445.276 735.838 445.614C735.619 445.95 735.305 446.212 734.895 446.4C734.488 446.586 734.029 446.679 733.518 446.679C732.87 446.679 732.327 446.584 731.887 446.396C731.451 446.207 731.108 445.924 730.857 445.546C730.61 445.165 730.48 444.735 730.466 444.257ZM742.156 439.398H743.103V443.534C743.103 444.254 743.022 444.825 742.859 445.248C742.696 445.671 742.402 446.016 741.975 446.283C741.552 446.547 740.995 446.679 740.305 446.679C739.635 446.679 739.086 446.563 738.66 446.332C738.233 446.101 737.929 445.767 737.747 445.331C737.564 444.892 737.473 444.293 737.473 443.534V439.398H738.421V443.529C738.421 444.151 738.478 444.61 738.591 444.906C738.709 445.199 738.907 445.425 739.187 445.585C739.47 445.744 739.815 445.824 740.222 445.824C740.919 445.824 741.415 445.666 741.712 445.351C742.008 445.035 742.156 444.428 742.156 443.529V439.398ZM744.646 446.557V439.398H747.332C747.879 439.398 748.316 439.472 748.645 439.618C748.977 439.761 749.236 439.984 749.422 440.287C749.61 440.587 749.705 440.901 749.705 441.229C749.705 441.535 749.622 441.824 749.456 442.094C749.29 442.364 749.039 442.582 748.704 442.748C749.137 442.875 749.469 443.091 749.7 443.397C749.934 443.703 750.051 444.065 750.051 444.481C750.051 444.817 749.98 445.129 749.837 445.419C749.697 445.705 749.522 445.927 749.314 446.083C749.106 446.239 748.844 446.358 748.528 446.439C748.216 446.518 747.831 446.557 747.376 446.557H744.646ZM745.593 442.406H747.141C747.561 442.406 747.862 442.379 748.045 442.323C748.286 442.252 748.466 442.133 748.587 441.967C748.71 441.801 748.772 441.592 748.772 441.342C748.772 441.104 748.715 440.896 748.601 440.717C748.487 440.535 748.325 440.411 748.113 440.346C747.901 440.277 747.538 440.243 747.024 440.243H745.593V442.406ZM745.593 445.712H747.376C747.682 445.712 747.897 445.701 748.02 445.678C748.238 445.639 748.421 445.574 748.567 445.482C748.714 445.391 748.834 445.259 748.928 445.087C749.023 444.911 749.07 444.709 749.07 444.481C749.07 444.215 749.002 443.983 748.865 443.788C748.728 443.59 748.538 443.451 748.294 443.373C748.053 443.292 747.704 443.251 747.249 443.251H745.593V445.712ZM753.401 446.557L750.628 439.398H751.653L753.513 444.599C753.663 445.015 753.788 445.406 753.889 445.771C754 445.38 754.129 444.989 754.275 444.599L756.209 439.398H757.175L754.373 446.557H753.401ZM758.045 446.557V439.398H763.22V440.243H758.992V442.436H762.952V443.275H758.992V445.712H763.386V446.557H758.045ZM764.71 446.557V439.398H767.883C768.522 439.398 769.007 439.464 769.339 439.594C769.671 439.721 769.936 439.947 770.134 440.272C770.333 440.598 770.432 440.958 770.432 441.352C770.432 441.859 770.268 442.287 769.939 442.636C769.61 442.984 769.103 443.205 768.416 443.3C768.666 443.42 768.857 443.539 768.987 443.656C769.264 443.91 769.526 444.228 769.773 444.608L771.018 446.557H769.827L768.88 445.067C768.603 444.638 768.375 444.309 768.196 444.081C768.017 443.853 767.856 443.694 767.713 443.603C767.573 443.511 767.429 443.448 767.283 443.412C767.175 443.389 767 443.378 766.756 443.378H765.657V446.557H764.71ZM765.657 442.558H767.693C768.126 442.558 768.465 442.514 768.709 442.426C768.953 442.335 769.138 442.191 769.265 441.996C769.392 441.798 769.456 441.583 769.456 441.352C769.456 441.013 769.332 440.735 769.085 440.517C768.841 440.299 768.453 440.189 767.923 440.189H765.657V442.558ZM771.599 444.257L772.493 444.179C772.535 444.537 772.633 444.831 772.786 445.062C772.942 445.29 773.183 445.476 773.508 445.619C773.834 445.759 774.2 445.829 774.607 445.829C774.968 445.829 775.287 445.775 775.564 445.668C775.841 445.561 776.046 445.414 776.179 445.229C776.316 445.04 776.384 444.835 776.384 444.613C776.384 444.389 776.319 444.193 776.189 444.027C776.059 443.858 775.844 443.716 775.545 443.603C775.353 443.528 774.928 443.412 774.27 443.256C773.613 443.096 773.152 442.947 772.888 442.807C772.547 442.628 772.291 442.406 772.122 442.143C771.956 441.876 771.873 441.578 771.873 441.249C771.873 440.888 771.975 440.551 772.18 440.238C772.385 439.923 772.685 439.683 773.079 439.521C773.473 439.358 773.911 439.276 774.392 439.276C774.923 439.276 775.39 439.363 775.794 439.535C776.201 439.704 776.513 439.955 776.731 440.287C776.949 440.619 777.066 440.995 777.083 441.415L776.174 441.483C776.126 441.031 775.96 440.689 775.676 440.458C775.397 440.227 774.981 440.111 774.431 440.111C773.858 440.111 773.44 440.217 773.176 440.429C772.916 440.637 772.786 440.889 772.786 441.186C772.786 441.443 772.879 441.654 773.064 441.82C773.246 441.986 773.722 442.157 774.49 442.333C775.261 442.506 775.79 442.657 776.077 442.787C776.494 442.979 776.801 443.223 777 443.52C777.198 443.812 777.298 444.151 777.298 444.535C777.298 444.916 777.188 445.276 776.97 445.614C776.752 445.95 776.438 446.212 776.028 446.4C775.621 446.586 775.162 446.679 774.651 446.679C774.003 446.679 773.46 446.584 773.02 446.396C772.584 446.207 772.241 445.924 771.99 445.546C771.743 445.165 771.612 444.735 771.599 444.257ZM778.753 446.557V439.398H779.7V446.557H778.753ZM781.087 443.07C781.087 441.882 781.406 440.953 782.044 440.282C782.682 439.608 783.505 439.271 784.514 439.271C785.175 439.271 785.771 439.429 786.301 439.745C786.832 440.061 787.236 440.502 787.512 441.068C787.792 441.632 787.932 442.271 787.932 442.987C787.932 443.713 787.786 444.363 787.493 444.936C787.2 445.508 786.785 445.943 786.248 446.239C785.711 446.532 785.131 446.679 784.509 446.679C783.836 446.679 783.233 446.516 782.703 446.19C782.172 445.865 781.77 445.421 781.497 444.857C781.223 444.294 781.087 443.699 781.087 443.07ZM782.063 443.085C782.063 443.948 782.294 444.628 782.757 445.126C783.222 445.621 783.805 445.868 784.505 445.868C785.217 445.868 785.803 445.618 786.262 445.116C786.725 444.615 786.956 443.904 786.956 442.982C786.956 442.4 786.856 441.892 786.658 441.459C786.463 441.023 786.174 440.686 785.794 440.448C785.416 440.207 784.991 440.087 784.519 440.087C783.849 440.087 783.271 440.318 782.786 440.78C782.304 441.239 782.063 442.007 782.063 443.085ZM783.909 438.959L784.558 437.592H785.711L784.636 438.959H783.909ZM789.148 446.557V439.398H790.12L793.88 445.019V439.398H794.788V446.557H793.816L790.056 440.932V446.557H789.148ZM799.187 446.557V439.398H804.363V440.243H800.134V442.436H804.094V443.275H800.134V445.712H804.529V446.557H799.187ZM810.945 444.047L811.892 444.286C811.694 445.064 811.336 445.658 810.818 446.068C810.304 446.475 809.674 446.679 808.928 446.679C808.157 446.679 807.529 446.522 807.044 446.21C806.562 445.894 806.194 445.438 805.94 444.843C805.689 444.247 805.564 443.607 805.564 442.924C805.564 442.178 805.706 441.529 805.989 440.976C806.275 440.419 806.681 439.997 807.205 439.711C807.732 439.421 808.312 439.276 808.943 439.276C809.659 439.276 810.261 439.459 810.75 439.823C811.238 440.188 811.578 440.701 811.77 441.361L810.838 441.581C810.672 441.06 810.431 440.681 810.115 440.443C809.799 440.206 809.402 440.087 808.924 440.087C808.373 440.087 807.913 440.219 807.542 440.482C807.174 440.746 806.915 441.101 806.765 441.547C806.616 441.99 806.541 442.447 806.541 442.919C806.541 443.528 806.629 444.06 806.804 444.516C806.983 444.968 807.26 445.307 807.634 445.531C808.009 445.756 808.414 445.868 808.85 445.868C809.381 445.868 809.83 445.715 810.198 445.409C810.566 445.103 810.815 444.649 810.945 444.047ZM812.776 443.07C812.776 441.882 813.095 440.953 813.733 440.282C814.371 439.608 815.195 439.271 816.204 439.271C816.865 439.271 817.46 439.429 817.991 439.745C818.522 440.061 818.925 440.502 819.202 441.068C819.482 441.632 819.622 442.271 819.622 442.987C819.622 443.713 819.475 444.363 819.182 444.936C818.889 445.508 818.474 445.943 817.937 446.239C817.4 446.532 816.821 446.679 816.199 446.679C815.525 446.679 814.923 446.516 814.392 446.19C813.862 445.865 813.46 445.421 813.186 444.857C812.913 444.294 812.776 443.699 812.776 443.07ZM813.753 443.085C813.753 443.948 813.984 444.628 814.446 445.126C814.911 445.621 815.494 445.868 816.194 445.868C816.907 445.868 817.493 445.618 817.952 445.116C818.414 444.615 818.645 443.904 818.645 442.982C818.645 442.4 818.546 441.892 818.347 441.459C818.152 441.023 817.864 440.686 817.483 440.448C817.105 440.207 816.681 440.087 816.209 440.087C815.538 440.087 814.96 440.318 814.475 440.78C813.994 441.239 813.753 442.007 813.753 443.085ZM820.838 446.557V439.398H821.809L825.569 445.019V439.398H826.477V446.557H825.506L821.746 440.932V446.557H820.838ZM827.786 443.07C827.786 441.882 828.105 440.953 828.743 440.282C829.381 439.608 830.204 439.271 831.214 439.271C831.874 439.271 832.47 439.429 833.001 439.745C833.531 440.061 833.935 440.502 834.212 441.068C834.492 441.632 834.632 442.271 834.632 442.987C834.632 443.713 834.485 444.363 834.192 444.936C833.899 445.508 833.484 445.943 832.947 446.239C832.41 446.532 831.83 446.679 831.209 446.679C830.535 446.679 829.933 446.516 829.402 446.19C828.871 445.865 828.469 445.421 828.196 444.857C827.923 444.294 827.786 443.699 827.786 443.07ZM828.762 443.085C828.762 443.948 828.994 444.628 829.456 445.126C829.921 445.621 830.504 445.868 831.204 445.868C831.917 445.868 832.503 445.618 832.962 445.116C833.424 444.615 833.655 443.904 833.655 442.982C833.655 442.4 833.556 441.892 833.357 441.459C833.162 441.023 832.874 440.686 832.493 440.448C832.115 440.207 831.69 440.087 831.218 440.087C830.548 440.087 829.97 440.318 829.485 440.78C829.003 441.239 828.762 442.007 828.762 443.085ZM830.608 438.959L831.258 437.592H832.41L831.336 438.959H830.608ZM835.828 446.557V439.398H837.254L838.948 444.467C839.104 444.939 839.218 445.292 839.29 445.526C839.371 445.266 839.498 444.883 839.671 444.379L841.384 439.398H842.659V446.557H841.746V440.565L839.666 446.557H838.811L836.741 440.463V446.557H835.828ZM844.348 446.557V439.398H845.296V446.557H844.348ZM852.078 444.047L853.025 444.286C852.827 445.064 852.468 445.658 851.951 446.068C851.437 446.475 850.807 446.679 850.061 446.679C849.29 446.679 848.661 446.522 848.176 446.21C847.695 445.894 847.327 445.438 847.073 444.843C846.822 444.247 846.697 443.607 846.697 442.924C846.697 442.178 846.839 441.529 847.122 440.976C847.408 440.419 847.813 439.997 848.338 439.711C848.865 439.421 849.444 439.276 850.076 439.276C850.792 439.276 851.394 439.459 851.883 439.823C852.371 440.188 852.711 440.701 852.903 441.361L851.97 441.581C851.804 441.06 851.563 440.681 851.248 440.443C850.932 440.206 850.535 440.087 850.056 440.087C849.506 440.087 849.046 440.219 848.674 440.482C848.307 440.746 848.048 441.101 847.898 441.547C847.748 441.99 847.674 442.447 847.674 442.919C847.674 443.528 847.761 444.06 847.937 444.516C848.116 444.968 848.393 445.307 848.767 445.531C849.142 445.756 849.547 445.868 849.983 445.868C850.514 445.868 850.963 445.715 851.331 445.409C851.699 445.103 851.948 444.649 852.078 444.047ZM853.411 446.557L856.16 439.398H857.18L860.11 446.557H859.031L858.196 444.389H855.203L854.417 446.557H853.411ZM855.476 443.617H857.903L857.156 441.635C856.928 441.033 856.759 440.538 856.648 440.15C856.557 440.609 856.428 441.065 856.262 441.518L855.476 443.617Z" fill="black"/>
<path d="M449.623 515.087C435.898 515.087 422.736 509.639 413.031 499.942C403.326 490.244 397.874 477.091 397.874 463.377C397.874 449.662 403.326 436.509 413.031 426.812C422.736 417.114 435.898 411.666 449.623 411.666C463.347 411.666 476.51 417.114 486.214 426.812C495.919 436.509 501.371 449.662 501.371 463.377C501.371 477.091 495.919 490.244 486.214 499.942C476.51 509.639 463.347 515.087 449.623 515.087Z" fill="#BECE55"/>
<path d="M394.783 453.058L392.009 445.899H393.035L394.895 451.1C395.045 451.516 395.17 451.907 395.271 452.271C395.382 451.881 395.51 451.49 395.657 451.1L397.59 445.899H398.557L395.754 453.058H394.783ZM404.104 445.899H405.051V450.035C405.051 450.755 404.97 451.326 404.807 451.749C404.644 452.172 404.35 452.517 403.923 452.784C403.5 453.048 402.943 453.18 402.253 453.18C401.583 453.18 401.034 453.064 400.608 452.833C400.181 452.602 399.877 452.268 399.695 451.832C399.513 451.393 399.421 450.794 399.421 450.035V445.899H400.369V450.03C400.369 450.652 400.426 451.111 400.54 451.407C400.657 451.7 400.855 451.926 401.135 452.086C401.418 452.245 401.763 452.325 402.17 452.325C402.867 452.325 403.363 452.167 403.66 451.852C403.956 451.536 404.104 450.929 404.104 450.03V445.899ZM406.653 453.058V445.899H411.829V446.744H407.6V448.937H411.56V449.776H407.6V452.213H411.995V453.058H406.653ZM413.264 453.058V445.899H414.211V452.213H417.737V453.058H413.264ZM418.582 449.571C418.582 448.383 418.901 447.454 419.539 446.783C420.177 446.109 421 445.772 422.009 445.772C422.67 445.772 423.266 445.93 423.796 446.246C424.327 446.562 424.731 447.003 425.007 447.569C425.287 448.132 425.427 448.772 425.427 449.488C425.427 450.214 425.281 450.864 424.988 451.437C424.695 452.009 424.28 452.444 423.743 452.74C423.206 453.033 422.626 453.18 422.004 453.18C421.331 453.18 420.728 453.017 420.198 452.691C419.667 452.366 419.265 451.922 418.992 451.358C418.718 450.795 418.582 450.2 418.582 449.571ZM419.558 449.586C419.558 450.449 419.789 451.129 420.251 451.627C420.717 452.122 421.3 452.369 421.999 452.369C422.712 452.369 423.298 452.118 423.757 451.617C424.22 451.116 424.451 450.405 424.451 449.483C424.451 448.901 424.351 448.393 424.153 447.96C423.957 447.524 423.669 447.187 423.289 446.949C422.911 446.708 422.486 446.588 422.014 446.588C421.344 446.588 420.766 446.819 420.281 447.281C419.799 447.74 419.558 448.508 419.558 449.586ZM426.331 450.758L427.224 450.68C427.266 451.038 427.364 451.332 427.517 451.563C427.673 451.791 427.914 451.977 428.24 452.12C428.565 452.26 428.931 452.33 429.338 452.33C429.7 452.33 430.019 452.276 430.295 452.169C430.572 452.062 430.777 451.915 430.911 451.729C431.047 451.541 431.116 451.336 431.116 451.114C431.116 450.89 431.051 450.694 430.92 450.528C430.79 450.359 430.575 450.217 430.276 450.104C430.084 450.029 429.659 449.913 429.001 449.757C428.344 449.597 427.883 449.448 427.62 449.308C427.278 449.129 427.022 448.907 426.853 448.644C426.687 448.377 426.604 448.079 426.604 447.75C426.604 447.389 426.707 447.052 426.912 446.739C427.117 446.424 427.416 446.184 427.81 446.021C428.204 445.859 428.642 445.777 429.124 445.777C429.654 445.777 430.121 445.864 430.525 446.036C430.932 446.205 431.244 446.456 431.462 446.788C431.68 447.12 431.798 447.496 431.814 447.916L430.906 447.984C430.857 447.532 430.691 447.19 430.408 446.959C430.128 446.728 429.713 446.612 429.163 446.612C428.59 446.612 428.171 446.718 427.908 446.93C427.647 447.138 427.517 447.39 427.517 447.687C427.517 447.944 427.61 448.155 427.795 448.321C427.978 448.487 428.453 448.658 429.221 448.834C429.993 449.007 430.522 449.158 430.808 449.288C431.225 449.48 431.532 449.724 431.731 450.021C431.929 450.313 432.029 450.652 432.029 451.036C432.029 451.417 431.92 451.777 431.702 452.115C431.484 452.451 431.169 452.713 430.759 452.901C430.352 453.087 429.893 453.18 429.382 453.18C428.735 453.18 428.191 453.085 427.751 452.896C427.315 452.708 426.972 452.424 426.721 452.047C426.474 451.666 426.344 451.236 426.331 450.758ZM436.106 453.058V445.899H438.572C439.128 445.899 439.553 445.934 439.846 446.002C440.256 446.096 440.606 446.267 440.896 446.515C441.274 446.834 441.555 447.242 441.741 447.74C441.929 448.235 442.024 448.801 442.024 449.439C442.024 449.983 441.96 450.465 441.833 450.885C441.707 451.305 441.544 451.653 441.345 451.93C441.147 452.203 440.929 452.42 440.691 452.579C440.457 452.735 440.172 452.854 439.836 452.936C439.504 453.017 439.122 453.058 438.689 453.058H436.106ZM437.053 452.213H438.582C439.054 452.213 439.423 452.169 439.69 452.081C439.96 451.993 440.175 451.869 440.334 451.71C440.559 451.485 440.733 451.184 440.857 450.807C440.984 450.426 441.047 449.965 441.047 449.425C441.047 448.676 440.924 448.102 440.676 447.701C440.432 447.298 440.134 447.027 439.783 446.891C439.529 446.793 439.12 446.744 438.557 446.744H437.053V452.213ZM443.352 453.058V445.899H448.528V446.744H444.299V448.937H448.259V449.776H444.299V452.213H448.694V453.058H443.352ZM452.747 453.058V445.899H453.694V452.213H457.219V453.058H452.747ZM457.566 453.058L460.315 445.899H461.335L464.265 453.058H463.186L462.351 450.89H459.358L458.572 453.058H457.566ZM459.631 450.118H462.058L461.311 448.136C461.083 447.534 460.914 447.039 460.803 446.651C460.712 447.11 460.583 447.566 460.417 448.019L459.631 450.118ZM467.219 453.058V445.899H468.645L470.339 450.968C470.496 451.44 470.61 451.793 470.681 452.027C470.763 451.767 470.889 451.384 471.062 450.88L472.776 445.899H474.05V453.058H473.137V447.066L471.057 453.058H470.203L468.132 446.964V453.058H467.219ZM480.276 445.899H481.223V450.035C481.223 450.755 481.142 451.326 480.979 451.749C480.816 452.172 480.522 452.517 480.095 452.784C479.672 453.048 479.115 453.18 478.425 453.18C477.755 453.18 477.206 453.064 476.78 452.833C476.353 452.602 476.049 452.268 475.867 451.832C475.684 451.393 475.593 450.794 475.593 450.035V445.899H476.54V450.03C476.54 450.652 476.597 451.111 476.711 451.407C476.829 451.7 477.027 451.926 477.307 452.086C477.59 452.245 477.935 452.325 478.342 452.325C479.039 452.325 479.535 452.167 479.832 451.852C480.128 451.536 480.276 450.929 480.276 450.03V445.899ZM482.825 453.058V445.899H488V446.744H483.772V448.937H487.732V449.776H483.772V452.213H488.166V453.058H482.825ZM489.49 453.058V445.899H492.664C493.302 445.899 493.787 445.965 494.119 446.095C494.451 446.222 494.716 446.448 494.915 446.773C495.113 447.099 495.212 447.459 495.212 447.853C495.212 448.36 495.048 448.788 494.719 449.137C494.39 449.485 493.883 449.706 493.196 449.801C493.446 449.921 493.637 450.04 493.767 450.157C494.044 450.411 494.306 450.729 494.553 451.109L495.798 453.058H494.607L493.66 451.568C493.383 451.139 493.155 450.81 492.976 450.582C492.797 450.354 492.636 450.195 492.493 450.104C492.353 450.012 492.209 449.949 492.063 449.913C491.956 449.89 491.78 449.879 491.536 449.879H490.437V453.058H489.49ZM490.437 449.059H492.473C492.906 449.059 493.245 449.015 493.489 448.927C493.733 448.836 493.918 448.692 494.045 448.497C494.172 448.299 494.236 448.084 494.236 447.853C494.236 447.514 494.112 447.236 493.865 447.018C493.621 446.799 493.233 446.69 492.703 446.69H490.437V449.059ZM498.337 453.058V446.744H495.979V445.899H501.653V446.744H499.285V453.058H498.337ZM502.649 453.058V445.899H507.825V446.744H503.596V448.937H507.556V449.776H503.596V452.213H507.991V453.058H502.649Z" fill="black"/>
</svg>
