<svg width="1291" height="282" viewBox="0 0 1291 282" fill="none" xmlns="http://www.w3.org/2000/svg">
<rect width="1291" height="282" fill="#EEEEEE"/>
<path d="M22 74H1282" stroke="#9284BE" stroke-width="2"/>
<ellipse cx="104.964" cy="77.4638" rx="21.7423" ry="21.1701" transform="rotate(-90 104.964 77.4638)" fill="#9284BE"/>
<path d="M65.2857 123.361V114.268H61.8977V113.001H70.1717V114.268H66.7767V123.361H65.2857ZM71.1403 123.361V115.745H72.6033V123.361H71.1403ZM71.2033 114.632L72.7293 112.049H74.2973L72.5473 114.632H71.2033ZM77.6446 123.494C76.8232 123.494 76.1862 123.287 75.7336 122.871C75.2856 122.456 75.0616 121.791 75.0616 120.876V116.928H73.6896V115.745H75.0616L75.3136 113.001H76.5246V115.745H78.7926V116.928H76.5246V120.638C76.5246 121.245 76.6436 121.667 76.8816 121.905C77.1242 122.143 77.4952 122.262 77.9946 122.262C78.2466 122.262 78.5429 122.225 78.8836 122.15V123.354C78.4729 123.448 78.0599 123.494 77.6446 123.494ZM82.442 123.487C81.9613 123.487 81.532 123.399 81.154 123.221C80.7806 123.039 80.4866 122.745 80.272 122.339C80.0573 121.933 79.95 121.392 79.95 120.715V115.745H81.413V120.631C81.413 121.224 81.5413 121.635 81.798 121.863C82.0593 122.092 82.3976 122.206 82.813 122.206C83.121 122.206 83.4453 122.136 83.786 121.996C84.1313 121.856 84.4253 121.63 84.668 121.317V115.745H86.124V123.361H84.906L84.808 122.549H84.731C84.4183 122.862 84.066 123.098 83.674 123.256C83.2866 123.41 82.876 123.487 82.442 123.487ZM88.0934 123.361V112.049H89.5564V123.361H88.0934ZM94.528 123.501C93.4967 123.501 92.673 123.186 92.057 122.556C91.4457 121.922 91.14 120.925 91.14 119.567C91.14 118.205 91.4434 117.208 92.05 116.578C92.6567 115.944 93.4827 115.626 94.528 115.626C95.5734 115.626 96.3994 115.944 97.006 116.578C97.6127 117.208 97.916 118.202 97.916 119.56C97.916 120.914 97.608 121.91 96.992 122.549C96.3807 123.184 95.5594 123.501 94.528 123.501ZM94.528 122.346C94.92 122.346 95.2584 122.262 95.543 122.094C95.8277 121.922 96.047 121.635 96.201 121.233C96.355 120.827 96.432 120.274 96.432 119.574C96.432 118.865 96.355 118.307 96.201 117.901C96.047 117.495 95.8277 117.208 95.543 117.04C95.2584 116.868 94.92 116.781 94.528 116.781C94.136 116.781 93.7977 116.868 93.513 117.04C93.2284 117.208 93.009 117.493 92.855 117.894C92.701 118.296 92.624 118.846 92.624 119.546C92.624 120.256 92.701 120.813 92.855 121.219C93.009 121.625 93.2284 121.915 93.513 122.087C93.7977 122.26 94.136 122.346 94.528 122.346ZM105.608 123.494C105.052 123.494 104.544 123.368 104.082 123.116C103.624 122.864 103.258 122.463 102.983 121.912C102.707 121.357 102.57 120.622 102.57 119.707C102.57 118.349 102.903 117.33 103.571 116.648C104.243 115.967 105.223 115.626 106.511 115.626C106.707 115.626 106.903 115.636 107.099 115.654C107.295 115.668 107.474 115.687 107.638 115.71V112.049H109.101V123.361H107.862L107.771 122.542H107.687C107.463 122.827 107.173 123.058 106.819 123.235C106.464 123.408 106.06 123.494 105.608 123.494ZM105.986 122.269C106.294 122.269 106.595 122.204 106.889 122.073C107.183 121.943 107.432 121.737 107.638 121.457V116.9C107.484 116.863 107.304 116.835 107.099 116.816C106.893 116.793 106.693 116.781 106.497 116.781C105.689 116.781 105.08 117.001 104.67 117.439C104.259 117.873 104.054 118.59 104.054 119.588C104.054 120.279 104.135 120.82 104.299 121.212C104.462 121.6 104.688 121.873 104.978 122.031C105.272 122.19 105.608 122.269 105.986 122.269ZM114.478 123.501C113.213 123.501 112.266 123.193 111.636 122.577C111.006 121.957 110.691 120.949 110.691 119.553C110.691 118.237 110.978 117.255 111.552 116.606C112.126 115.953 112.912 115.626 113.911 115.626C114.891 115.626 115.644 115.953 116.172 116.606C116.699 117.26 116.963 118.254 116.963 119.588V120.008H112.168C112.196 120.867 112.408 121.471 112.805 121.821C113.201 122.171 113.822 122.346 114.667 122.346C114.956 122.346 115.259 122.323 115.577 122.276C115.894 122.225 116.225 122.153 116.571 122.059V123.207C116.193 123.31 115.833 123.385 115.493 123.431C115.152 123.478 114.814 123.501 114.478 123.501ZM113.897 116.627C113.369 116.627 112.952 116.809 112.644 117.173C112.34 117.533 112.179 118.17 112.161 119.084H115.577C115.563 118.174 115.411 117.537 115.122 117.173C114.832 116.809 114.424 116.627 113.897 116.627ZM118.459 123.361V112.049H119.922V123.361H118.459ZM125.336 123.361V112.049H126.799V116.571H126.876C127.468 115.941 128.227 115.626 129.151 115.626C129.613 115.626 130.026 115.717 130.39 115.899C130.758 116.081 131.048 116.375 131.258 116.781C131.472 117.187 131.58 117.731 131.58 118.412V123.361H130.117V118.496C130.117 117.899 129.986 117.488 129.725 117.264C129.463 117.036 129.116 116.921 128.682 116.921C128.36 116.921 128.026 116.991 127.681 117.131C127.335 117.267 127.041 117.493 126.799 117.81V123.361H125.336ZM133.47 123.361V115.745H134.933V123.361H133.47ZM134.205 114.261C133.561 114.261 133.239 113.981 133.239 113.421C133.239 113.155 133.321 112.948 133.484 112.798C133.648 112.644 133.888 112.567 134.205 112.567C134.523 112.567 134.763 112.644 134.926 112.798C135.09 112.948 135.171 113.155 135.171 113.421C135.171 113.981 134.849 114.261 134.205 114.261ZM139.975 123.494C139.153 123.494 138.516 123.287 138.064 122.871C137.616 122.456 137.392 121.791 137.392 120.876V116.928H136.02V115.745H137.392L137.644 113.001H138.855V115.745H141.123V116.928H138.855V120.638C138.855 121.245 138.974 121.667 139.212 121.905C139.454 122.143 139.825 122.262 140.325 122.262C140.577 122.262 140.873 122.225 141.214 122.15V123.354C140.803 123.448 140.39 123.494 139.975 123.494ZM145.278 123.501C144.247 123.501 143.423 123.186 142.807 122.556C142.196 121.922 141.89 120.925 141.89 119.567C141.89 118.205 142.193 117.208 142.8 116.578C143.407 115.944 144.233 115.626 145.278 115.626C146.323 115.626 147.149 115.944 147.756 116.578C148.363 117.208 148.666 118.202 148.666 119.56C148.666 120.914 148.358 121.91 147.742 122.549C147.131 123.184 146.309 123.501 145.278 123.501ZM145.278 122.346C145.67 122.346 146.008 122.262 146.293 122.094C146.578 121.922 146.797 121.635 146.951 121.233C147.105 120.827 147.182 120.274 147.182 119.574C147.182 118.865 147.105 118.307 146.951 117.901C146.797 117.495 146.578 117.208 146.293 117.04C146.008 116.868 145.67 116.781 145.278 116.781C144.886 116.781 144.548 116.868 144.263 117.04C143.978 117.208 143.759 117.493 143.605 117.894C143.451 118.296 143.374 118.846 143.374 119.546C143.374 120.256 143.451 120.813 143.605 121.219C143.759 121.625 143.978 121.915 144.263 122.087C144.548 122.26 144.886 122.346 145.278 122.346Z" fill="black"/>
<circle cx="105.536" cy="142.691" r="8.01031" fill="#C4C4C4"/>
<path d="M103.749 142.045V140.225H108.474V142.045H103.749Z" fill="black"/>
<ellipse cx="423.088" cy="77.4638" rx="21.7423" ry="21.1701" transform="rotate(-90 423.088 77.4638)" fill="#9284BE"/>
<path d="M383.41 123.361V114.268H380.022V113.001H388.296V114.268H384.901V123.361H383.41ZM389.264 123.361V115.745H390.727V123.361H389.264ZM389.327 114.632L390.853 112.049H392.421L390.671 114.632H389.327ZM395.768 123.494C394.947 123.494 394.31 123.287 393.857 122.871C393.409 122.456 393.185 121.791 393.185 120.876V116.928H391.813V115.745H393.185L393.437 113.001H394.648V115.745H396.916V116.928H394.648V120.638C394.648 121.245 394.767 121.667 395.005 121.905C395.248 122.143 395.619 122.262 396.118 122.262C396.37 122.262 396.667 122.225 397.007 122.15V123.354C396.597 123.448 396.184 123.494 395.768 123.494ZM400.566 123.487C400.085 123.487 399.656 123.399 399.278 123.221C398.904 123.039 398.61 122.745 398.396 122.339C398.181 121.933 398.074 121.392 398.074 120.715V115.745H399.537V120.631C399.537 121.224 399.665 121.635 399.922 121.863C400.183 122.092 400.521 122.206 400.937 122.206C401.245 122.206 401.569 122.136 401.91 121.996C402.255 121.856 402.549 121.63 402.792 121.317V115.745H404.248V123.361H403.03L402.932 122.549H402.855C402.542 122.862 402.19 123.098 401.798 123.256C401.41 123.41 401 123.487 400.566 123.487ZM406.217 123.361V112.049H407.68V123.361H406.217ZM412.652 123.501C411.62 123.501 410.797 123.186 410.181 122.556C409.569 121.922 409.264 120.925 409.264 119.567C409.264 118.205 409.567 117.208 410.174 116.578C410.78 115.944 411.606 115.626 412.652 115.626C413.697 115.626 414.523 115.944 415.13 116.578C415.736 117.208 416.04 118.202 416.04 119.56C416.04 120.914 415.732 121.91 415.116 122.549C414.504 123.184 413.683 123.501 412.652 123.501ZM412.652 122.346C413.044 122.346 413.382 122.262 413.667 122.094C413.951 121.922 414.171 121.635 414.325 121.233C414.479 120.827 414.556 120.274 414.556 119.574C414.556 118.865 414.479 118.307 414.325 117.901C414.171 117.495 413.951 117.208 413.667 117.04C413.382 116.868 413.044 116.781 412.652 116.781C412.26 116.781 411.921 116.868 411.637 117.04C411.352 117.208 411.133 117.493 410.979 117.894C410.825 118.296 410.748 118.846 410.748 119.546C410.748 120.256 410.825 120.813 410.979 121.219C411.133 121.625 411.352 121.915 411.637 122.087C411.921 122.26 412.26 122.346 412.652 122.346ZM423.731 123.494C423.176 123.494 422.667 123.368 422.205 123.116C421.748 122.864 421.382 122.463 421.106 121.912C420.831 121.357 420.693 120.622 420.693 119.707C420.693 118.349 421.027 117.33 421.694 116.648C422.366 115.967 423.346 115.626 424.634 115.626C424.83 115.626 425.026 115.636 425.222 115.654C425.418 115.668 425.598 115.687 425.761 115.71V112.049H427.224V123.361H425.985L425.894 122.542H425.81C425.586 122.827 425.297 123.058 424.942 123.235C424.588 123.408 424.184 123.494 423.731 123.494ZM424.109 122.269C424.417 122.269 424.718 122.204 425.012 122.073C425.306 121.943 425.556 121.737 425.761 121.457V116.9C425.607 116.863 425.428 116.835 425.222 116.816C425.017 116.793 424.816 116.781 424.62 116.781C423.813 116.781 423.204 117.001 422.793 117.439C422.383 117.873 422.177 118.59 422.177 119.588C422.177 120.279 422.259 120.82 422.422 121.212C422.586 121.6 422.812 121.873 423.101 122.031C423.395 122.19 423.731 122.269 424.109 122.269ZM432.602 123.501C431.337 123.501 430.39 123.193 429.76 122.577C429.13 121.957 428.815 120.949 428.815 119.553C428.815 118.237 429.102 117.255 429.676 116.606C430.25 115.953 431.036 115.626 432.035 115.626C433.015 115.626 433.768 115.953 434.296 116.606C434.823 117.26 435.087 118.254 435.087 119.588V120.008H430.292C430.32 120.867 430.532 121.471 430.929 121.821C431.325 122.171 431.946 122.346 432.791 122.346C433.08 122.346 433.383 122.323 433.701 122.276C434.018 122.225 434.349 122.153 434.695 122.059V123.207C434.317 123.31 433.957 123.385 433.617 123.431C433.276 123.478 432.938 123.501 432.602 123.501ZM432.021 116.627C431.493 116.627 431.076 116.809 430.768 117.173C430.464 117.533 430.303 118.17 430.285 119.084H433.701C433.687 118.174 433.535 117.537 433.246 117.173C432.956 116.809 432.548 116.627 432.021 116.627ZM436.582 123.361V112.049H438.045V123.361H436.582ZM443.459 123.361V112.049H444.922V116.571H444.999C445.592 115.941 446.35 115.626 447.274 115.626C447.736 115.626 448.149 115.717 448.513 115.899C448.882 116.081 449.171 116.375 449.381 116.781C449.596 117.187 449.703 117.731 449.703 118.412V123.361H448.24V118.496C448.24 117.899 448.11 117.488 447.848 117.264C447.587 117.036 447.239 116.921 446.805 116.921C446.483 116.921 446.15 116.991 445.804 117.131C445.459 117.267 445.165 117.493 444.922 117.81V123.361H443.459ZM451.594 123.361V115.745H453.057V123.361H451.594ZM452.329 114.261C451.685 114.261 451.363 113.981 451.363 113.421C451.363 113.155 451.445 112.948 451.608 112.798C451.771 112.644 452.012 112.567 452.329 112.567C452.646 112.567 452.887 112.644 453.05 112.798C453.213 112.948 453.295 113.155 453.295 113.421C453.295 113.981 452.973 114.261 452.329 114.261ZM458.098 123.494C457.277 123.494 456.64 123.287 456.187 122.871C455.739 122.456 455.515 121.791 455.515 120.876V116.928H454.143V115.745H455.515L455.767 113.001H456.978V115.745H459.246V116.928H456.978V120.638C456.978 121.245 457.097 121.667 457.335 121.905C457.578 122.143 457.949 122.262 458.448 122.262C458.7 122.262 458.997 122.225 459.337 122.15V123.354C458.927 123.448 458.514 123.494 458.098 123.494ZM463.402 123.501C462.37 123.501 461.547 123.186 460.931 122.556C460.319 121.922 460.014 120.925 460.014 119.567C460.014 118.205 460.317 117.208 460.924 116.578C461.53 115.944 462.356 115.626 463.402 115.626C464.447 115.626 465.273 115.944 465.88 116.578C466.486 117.208 466.79 118.202 466.79 119.56C466.79 120.914 466.482 121.91 465.866 122.549C465.254 123.184 464.433 123.501 463.402 123.501ZM463.402 122.346C463.794 122.346 464.132 122.262 464.417 122.094C464.701 121.922 464.921 121.635 465.075 121.233C465.229 120.827 465.306 120.274 465.306 119.574C465.306 118.865 465.229 118.307 465.075 117.901C464.921 117.495 464.701 117.208 464.417 117.04C464.132 116.868 463.794 116.781 463.402 116.781C463.01 116.781 462.671 116.868 462.387 117.04C462.102 117.208 461.883 117.493 461.729 117.894C461.575 118.296 461.498 118.846 461.498 119.546C461.498 120.256 461.575 120.813 461.729 121.219C461.883 121.625 462.102 121.915 462.387 122.087C462.671 122.26 463.01 122.346 463.402 122.346Z" fill="black"/>
<circle cx="423.66" cy="142.691" r="8.01031" fill="#C4C4C4"/>
<path d="M422.772 145.159V142.926H420.63V141.218H422.772V138.985H424.55V141.218H426.692V142.926H424.55V145.159H422.772Z" fill="black"/>
<ellipse cx="741.211" cy="74.0312" rx="21.7423" ry="21.1701" transform="rotate(-90 741.211 74.0312)" fill="#9284BE"/>
<path d="M701.533 119.929V110.836H698.145V109.569H706.419V110.836H703.024V119.929H701.533ZM707.388 119.929V112.313H708.851V119.929H707.388ZM707.451 111.2L708.977 108.617H710.545L708.795 111.2H707.451ZM713.892 120.062C713.071 120.062 712.434 119.854 711.981 119.439C711.533 119.023 711.309 118.358 711.309 117.444V113.496H709.937V112.313H711.309L711.561 109.569H712.772V112.313H715.04V113.496H712.772V117.206C712.772 117.812 712.891 118.235 713.129 118.473C713.372 118.711 713.743 118.83 714.242 118.83C714.494 118.83 714.79 118.792 715.131 118.718V119.922C714.72 120.015 714.307 120.062 713.892 120.062ZM718.69 120.055C718.209 120.055 717.78 119.966 717.402 119.789C717.028 119.607 716.734 119.313 716.52 118.907C716.305 118.501 716.198 117.959 716.198 117.283V112.313H717.661V117.199C717.661 117.791 717.789 118.202 718.046 118.431C718.307 118.659 718.645 118.774 719.061 118.774C719.369 118.774 719.693 118.704 720.034 118.564C720.379 118.424 720.673 118.197 720.916 117.885V112.313H722.372V119.929H721.154L721.056 119.117H720.979C720.666 119.429 720.314 119.665 719.922 119.824C719.534 119.978 719.124 120.055 718.69 120.055ZM724.341 119.929V108.617H725.804V119.929H724.341ZM730.776 120.069C729.744 120.069 728.921 119.754 728.305 119.124C727.693 118.489 727.388 117.493 727.388 116.135C727.388 114.772 727.691 113.776 728.298 113.146C728.904 112.511 729.73 112.194 730.776 112.194C731.821 112.194 732.647 112.511 733.254 113.146C733.86 113.776 734.164 114.77 734.164 116.128C734.164 117.481 733.856 118.477 733.24 119.117C732.628 119.751 731.807 120.069 730.776 120.069ZM730.776 118.914C731.168 118.914 731.506 118.83 731.791 118.662C732.075 118.489 732.295 118.202 732.449 117.801C732.603 117.395 732.68 116.842 732.68 116.142C732.68 115.432 732.603 114.875 732.449 114.469C732.295 114.063 732.075 113.776 731.791 113.608C731.506 113.435 731.168 113.349 730.776 113.349C730.384 113.349 730.045 113.435 729.761 113.608C729.476 113.776 729.257 114.06 729.103 114.462C728.949 114.863 728.872 115.414 728.872 116.114C728.872 116.823 728.949 117.381 729.103 117.787C729.257 118.193 729.476 118.482 729.761 118.655C730.045 118.827 730.384 118.914 730.776 118.914ZM741.855 120.062C741.3 120.062 740.791 119.936 740.329 119.684C739.872 119.432 739.506 119.03 739.23 118.48C738.955 117.924 738.817 117.189 738.817 116.275C738.817 114.917 739.151 113.897 739.818 113.216C740.49 112.534 741.47 112.194 742.758 112.194C742.954 112.194 743.15 112.203 743.346 112.222C743.542 112.236 743.722 112.254 743.885 112.278V108.617H745.348V119.929H744.109L744.018 119.11H743.934C743.71 119.394 743.421 119.625 743.066 119.803C742.712 119.975 742.308 120.062 741.855 120.062ZM742.233 118.837C742.541 118.837 742.842 118.771 743.136 118.641C743.43 118.51 743.68 118.305 743.885 118.025V113.468C743.731 113.43 743.552 113.402 743.346 113.384C743.141 113.36 742.94 113.349 742.744 113.349C741.937 113.349 741.328 113.568 740.917 114.007C740.507 114.441 740.301 115.157 740.301 116.156C740.301 116.846 740.383 117.388 740.546 117.78C740.71 118.167 740.936 118.44 741.225 118.599C741.519 118.757 741.855 118.837 742.233 118.837ZM750.725 120.069C749.461 120.069 748.513 119.761 747.883 119.145C747.253 118.524 746.938 117.516 746.938 116.121C746.938 114.805 747.225 113.822 747.799 113.174C748.373 112.52 749.16 112.194 750.158 112.194C751.138 112.194 751.892 112.52 752.419 113.174C752.947 113.827 753.21 114.821 753.21 116.156V116.576H748.415C748.443 117.434 748.656 118.039 749.052 118.389C749.449 118.739 750.07 118.914 750.914 118.914C751.204 118.914 751.507 118.89 751.824 118.844C752.142 118.792 752.473 118.72 752.818 118.627V119.775C752.44 119.877 752.081 119.952 751.74 119.999C751.4 120.045 751.061 120.069 750.725 120.069ZM750.144 113.195C749.617 113.195 749.199 113.377 748.891 113.741C748.588 114.1 748.427 114.737 748.408 115.652H751.824C751.81 114.742 751.659 114.105 751.369 113.741C751.08 113.377 750.672 113.195 750.144 113.195ZM754.706 119.929V108.617H756.169V119.929H754.706ZM761.583 119.929V108.617H763.046V113.139H763.123C763.716 112.509 764.474 112.194 765.398 112.194C765.86 112.194 766.273 112.285 766.637 112.467C767.006 112.649 767.295 112.943 767.505 113.349C767.72 113.755 767.827 114.298 767.827 114.98V119.929H766.364V115.064C766.364 114.466 766.233 114.056 765.972 113.832C765.711 113.603 765.363 113.489 764.929 113.489C764.607 113.489 764.273 113.559 763.928 113.699C763.583 113.834 763.289 114.06 763.046 114.378V119.929H761.583ZM769.718 119.929V112.313H771.181V119.929H769.718ZM770.453 110.829C769.809 110.829 769.487 110.549 769.487 109.989C769.487 109.723 769.569 109.515 769.732 109.366C769.895 109.212 770.136 109.135 770.453 109.135C770.77 109.135 771.011 109.212 771.174 109.366C771.337 109.515 771.419 109.723 771.419 109.989C771.419 110.549 771.097 110.829 770.453 110.829ZM776.222 120.062C775.401 120.062 774.764 119.854 774.311 119.439C773.863 119.023 773.639 118.358 773.639 117.444V113.496H772.267V112.313H773.639L773.891 109.569H775.102V112.313H777.37V113.496H775.102V117.206C775.102 117.812 775.221 118.235 775.459 118.473C775.702 118.711 776.073 118.83 776.572 118.83C776.824 118.83 777.121 118.792 777.461 118.718V119.922C777.051 120.015 776.638 120.062 776.222 120.062ZM781.526 120.069C780.494 120.069 779.671 119.754 779.055 119.124C778.443 118.489 778.138 117.493 778.138 116.135C778.138 114.772 778.441 113.776 779.048 113.146C779.654 112.511 780.48 112.194 781.526 112.194C782.571 112.194 783.397 112.511 784.004 113.146C784.61 113.776 784.914 114.77 784.914 116.128C784.914 117.481 784.606 118.477 783.99 119.117C783.378 119.751 782.557 120.069 781.526 120.069ZM781.526 118.914C781.918 118.914 782.256 118.83 782.541 118.662C782.825 118.489 783.045 118.202 783.199 117.801C783.353 117.395 783.43 116.842 783.43 116.142C783.43 115.432 783.353 114.875 783.199 114.469C783.045 114.063 782.825 113.776 782.541 113.608C782.256 113.435 781.918 113.349 781.526 113.349C781.134 113.349 780.795 113.435 780.511 113.608C780.226 113.776 780.007 114.06 779.853 114.462C779.699 114.863 779.622 115.414 779.622 116.114C779.622 116.823 779.699 117.381 779.853 117.787C780.007 118.193 780.226 118.482 780.511 118.655C780.795 118.827 781.134 118.914 781.526 118.914Z" fill="black"/>
<circle cx="741.784" cy="139.258" r="8.01031" fill="#C4C4C4"/>
<path d="M740.896 141.726V139.493H738.754V137.785H740.896V135.552H742.674V137.785H744.816V139.493H742.674V141.726H740.896Z" fill="black"/>
<ellipse cx="1059.33" cy="71.7421" rx="21.7423" ry="21.1701" transform="rotate(-90 1059.33 71.7421)" fill="#9284BE"/>
<path d="M1019.66 117.64V108.547H1016.27V107.28H1024.54V108.547H1021.15V117.64H1019.66ZM1025.51 117.64V110.024H1026.97V117.64H1025.51ZM1025.57 108.911L1027.1 106.328H1028.67L1026.92 108.911H1025.57ZM1032.02 117.773C1031.19 117.773 1030.56 117.565 1030.1 117.15C1029.66 116.734 1029.43 116.069 1029.43 115.155V111.207H1028.06V110.024H1029.43L1029.68 107.28H1030.9V110.024H1033.16V111.207H1030.9V114.917C1030.9 115.523 1031.01 115.946 1031.25 116.184C1031.5 116.422 1031.87 116.541 1032.37 116.541C1032.62 116.541 1032.91 116.503 1033.25 116.429V117.633C1032.84 117.726 1032.43 117.773 1032.02 117.773ZM1036.81 117.766C1036.33 117.766 1035.9 117.677 1035.53 117.5C1035.15 117.318 1034.86 117.024 1034.64 116.618C1034.43 116.212 1034.32 115.67 1034.32 114.994V110.024H1035.78V114.91C1035.78 115.502 1035.91 115.913 1036.17 116.142C1036.43 116.37 1036.77 116.485 1037.18 116.485C1037.49 116.485 1037.82 116.415 1038.16 116.275C1038.5 116.135 1038.8 115.908 1039.04 115.596V110.024H1040.5V117.64H1039.28L1039.18 116.828H1039.1C1038.79 117.14 1038.44 117.376 1038.05 117.535C1037.66 117.689 1037.25 117.766 1036.81 117.766ZM1042.46 117.64V106.328H1043.93V117.64H1042.46ZM1048.9 117.78C1047.87 117.78 1047.04 117.465 1046.43 116.835C1045.82 116.2 1045.51 115.204 1045.51 113.846C1045.51 112.483 1045.81 111.487 1046.42 110.857C1047.03 110.222 1047.85 109.905 1048.9 109.905C1049.94 109.905 1050.77 110.222 1051.38 110.857C1051.98 111.487 1052.29 112.481 1052.29 113.839C1052.29 115.192 1051.98 116.188 1051.36 116.828C1050.75 117.462 1049.93 117.78 1048.9 117.78ZM1048.9 116.625C1049.29 116.625 1049.63 116.541 1049.91 116.373C1050.2 116.2 1050.42 115.913 1050.57 115.512C1050.73 115.106 1050.8 114.553 1050.8 113.853C1050.8 113.143 1050.73 112.586 1050.57 112.18C1050.42 111.774 1050.2 111.487 1049.91 111.319C1049.63 111.146 1049.29 111.06 1048.9 111.06C1048.51 111.06 1048.17 111.146 1047.88 111.319C1047.6 111.487 1047.38 111.771 1047.23 112.173C1047.07 112.574 1047 113.125 1047 113.825C1047 114.534 1047.07 115.092 1047.23 115.498C1047.38 115.904 1047.6 116.193 1047.88 116.366C1048.17 116.538 1048.51 116.625 1048.9 116.625ZM1059.98 117.773C1059.42 117.773 1058.91 117.647 1058.45 117.395C1058 117.143 1057.63 116.741 1057.35 116.191C1057.08 115.635 1056.94 114.9 1056.94 113.986C1056.94 112.628 1057.27 111.608 1057.94 110.927C1058.61 110.245 1059.59 109.905 1060.88 109.905C1061.08 109.905 1061.27 109.914 1061.47 109.933C1061.67 109.947 1061.85 109.965 1062.01 109.989V106.328H1063.47V117.64H1062.23L1062.14 116.821H1062.06C1061.83 117.105 1061.54 117.336 1061.19 117.514C1060.84 117.686 1060.43 117.773 1059.98 117.773ZM1060.36 116.548C1060.66 116.548 1060.97 116.482 1061.26 116.352C1061.55 116.221 1061.8 116.016 1062.01 115.736V111.179C1061.85 111.141 1061.68 111.113 1061.47 111.095C1061.26 111.071 1061.06 111.06 1060.87 111.06C1060.06 111.06 1059.45 111.279 1059.04 111.718C1058.63 112.152 1058.42 112.868 1058.42 113.867C1058.42 114.557 1058.51 115.099 1058.67 115.491C1058.83 115.878 1059.06 116.151 1059.35 116.31C1059.64 116.468 1059.98 116.548 1060.36 116.548ZM1068.85 117.78C1067.58 117.78 1066.64 117.472 1066.01 116.856C1065.38 116.235 1065.06 115.227 1065.06 113.832C1065.06 112.516 1065.35 111.533 1065.92 110.885C1066.5 110.231 1067.28 109.905 1068.28 109.905C1069.26 109.905 1070.02 110.231 1070.54 110.885C1071.07 111.538 1071.33 112.532 1071.33 113.867V114.287H1066.54C1066.57 115.145 1066.78 115.75 1067.18 116.1C1067.57 116.45 1068.19 116.625 1069.04 116.625C1069.33 116.625 1069.63 116.601 1069.95 116.555C1070.27 116.503 1070.6 116.431 1070.94 116.338V117.486C1070.56 117.588 1070.2 117.663 1069.86 117.71C1069.52 117.756 1069.18 117.78 1068.85 117.78ZM1068.27 110.906C1067.74 110.906 1067.32 111.088 1067.01 111.452C1066.71 111.811 1066.55 112.448 1066.53 113.363H1069.95C1069.93 112.453 1069.78 111.816 1069.49 111.452C1069.2 111.088 1068.8 110.906 1068.27 110.906ZM1072.83 117.64V106.328H1074.29V117.64H1072.83ZM1079.71 117.64V106.328H1081.17V110.85H1081.25C1081.84 110.22 1082.6 109.905 1083.52 109.905C1083.98 109.905 1084.4 109.996 1084.76 110.178C1085.13 110.36 1085.42 110.654 1085.63 111.06C1085.84 111.466 1085.95 112.009 1085.95 112.691V117.64H1084.49V112.775C1084.49 112.177 1084.36 111.767 1084.1 111.543C1083.83 111.314 1083.49 111.2 1083.05 111.2C1082.73 111.2 1082.4 111.27 1082.05 111.41C1081.71 111.545 1081.41 111.771 1081.17 112.089V117.64H1079.71ZM1087.84 117.64V110.024H1089.3V117.64H1087.84ZM1088.58 108.54C1087.93 108.54 1087.61 108.26 1087.61 107.7C1087.61 107.434 1087.69 107.226 1087.86 107.077C1088.02 106.923 1088.26 106.846 1088.58 106.846C1088.89 106.846 1089.13 106.923 1089.3 107.077C1089.46 107.226 1089.54 107.434 1089.54 107.7C1089.54 108.26 1089.22 108.54 1088.58 108.54ZM1094.35 117.773C1093.52 117.773 1092.89 117.565 1092.43 117.15C1091.99 116.734 1091.76 116.069 1091.76 115.155V111.207H1090.39V110.024H1091.76L1092.01 107.28H1093.23V110.024H1095.49V111.207H1093.23V114.917C1093.23 115.523 1093.34 115.946 1093.58 116.184C1093.83 116.422 1094.2 116.541 1094.7 116.541C1094.95 116.541 1095.24 116.503 1095.58 116.429V117.633C1095.17 117.726 1094.76 117.773 1094.35 117.773ZM1099.65 117.78C1098.62 117.78 1097.79 117.465 1097.18 116.835C1096.57 116.2 1096.26 115.204 1096.26 113.846C1096.26 112.483 1096.56 111.487 1097.17 110.857C1097.78 110.222 1098.6 109.905 1099.65 109.905C1100.69 109.905 1101.52 110.222 1102.13 110.857C1102.73 111.487 1103.04 112.481 1103.04 113.839C1103.04 115.192 1102.73 116.188 1102.11 116.828C1101.5 117.462 1100.68 117.78 1099.65 117.78ZM1099.65 116.625C1100.04 116.625 1100.38 116.541 1100.66 116.373C1100.95 116.2 1101.17 115.913 1101.32 115.512C1101.48 115.106 1101.55 114.553 1101.55 113.853C1101.55 113.143 1101.48 112.586 1101.32 112.18C1101.17 111.774 1100.95 111.487 1100.66 111.319C1100.38 111.146 1100.04 111.06 1099.65 111.06C1099.26 111.06 1098.92 111.146 1098.63 111.319C1098.35 111.487 1098.13 111.771 1097.98 112.173C1097.82 112.574 1097.75 113.125 1097.75 113.825C1097.75 114.534 1097.82 115.092 1097.98 115.498C1098.13 115.904 1098.35 116.193 1098.63 116.366C1098.92 116.538 1099.26 116.625 1099.65 116.625Z" fill="black"/>
<circle cx="1059.91" cy="136.969" r="8.01031" fill="#C4C4C4"/>
<path d="M1059.02 139.437V137.204H1056.88V135.496H1059.02V133.263H1060.8V135.496H1062.94V137.204H1060.8V139.437H1059.02Z" fill="black"/>
<ellipse cx="264.026" cy="77.4638" rx="21.7423" ry="21.1701" transform="rotate(-90 264.026 77.4638)" fill="#9284BE"/>
<path d="M224.348 123.361V114.268H220.96V113.001H229.234V114.268H225.839V123.361H224.348ZM230.202 123.361V115.745H231.665V123.361H230.202ZM230.265 114.632L231.791 112.049H233.359L231.609 114.632H230.265ZM236.706 123.494C235.885 123.494 235.248 123.287 234.795 122.871C234.347 122.456 234.123 121.791 234.123 120.876V116.928H232.751V115.745H234.123L234.375 113.001H235.586V115.745H237.854V116.928H235.586V120.638C235.586 121.245 235.705 121.667 235.943 121.905C236.186 122.143 236.557 122.262 237.056 122.262C237.308 122.262 237.605 122.225 237.945 122.15V123.354C237.535 123.448 237.122 123.494 236.706 123.494ZM241.504 123.487C241.023 123.487 240.594 123.399 240.216 123.221C239.842 123.039 239.548 122.745 239.334 122.339C239.119 121.933 239.012 121.392 239.012 120.715V115.745H240.475V120.631C240.475 121.224 240.603 121.635 240.86 121.863C241.121 122.092 241.459 122.206 241.875 122.206C242.183 122.206 242.507 122.136 242.848 121.996C243.193 121.856 243.487 121.63 243.73 121.317V115.745H245.186V123.361H243.968L243.87 122.549H243.793C243.48 122.862 243.128 123.098 242.736 123.256C242.348 123.41 241.938 123.487 241.504 123.487ZM247.155 123.361V112.049H248.618V123.361H247.155ZM253.59 123.501C252.558 123.501 251.735 123.186 251.119 122.556C250.507 121.922 250.202 120.925 250.202 119.567C250.202 118.205 250.505 117.208 251.112 116.578C251.718 115.944 252.544 115.626 253.59 115.626C254.635 115.626 255.461 115.944 256.068 116.578C256.674 117.208 256.978 118.202 256.978 119.56C256.978 120.914 256.67 121.91 256.054 122.549C255.442 123.184 254.621 123.501 253.59 123.501ZM253.59 122.346C253.982 122.346 254.32 122.262 254.605 122.094C254.889 121.922 255.109 121.635 255.263 121.233C255.417 120.827 255.494 120.274 255.494 119.574C255.494 118.865 255.417 118.307 255.263 117.901C255.109 117.495 254.889 117.208 254.605 117.04C254.32 116.868 253.982 116.781 253.59 116.781C253.198 116.781 252.859 116.868 252.575 117.04C252.29 117.208 252.071 117.493 251.917 117.894C251.763 118.296 251.686 118.846 251.686 119.546C251.686 120.256 251.763 120.813 251.917 121.219C252.071 121.625 252.29 121.915 252.575 122.087C252.859 122.26 253.198 122.346 253.59 122.346ZM264.669 123.494C264.114 123.494 263.605 123.368 263.143 123.116C262.686 122.864 262.32 122.463 262.044 121.912C261.769 121.357 261.631 120.622 261.631 119.707C261.631 118.349 261.965 117.33 262.632 116.648C263.304 115.967 264.284 115.626 265.572 115.626C265.768 115.626 265.964 115.636 266.16 115.654C266.356 115.668 266.536 115.687 266.699 115.71V112.049H268.162V123.361H266.923L266.832 122.542H266.748C266.524 122.827 266.235 123.058 265.88 123.235C265.526 123.408 265.122 123.494 264.669 123.494ZM265.047 122.269C265.355 122.269 265.656 122.204 265.95 122.073C266.244 121.943 266.494 121.737 266.699 121.457V116.9C266.545 116.863 266.366 116.835 266.16 116.816C265.955 116.793 265.754 116.781 265.558 116.781C264.751 116.781 264.142 117.001 263.731 117.439C263.321 117.873 263.115 118.59 263.115 119.588C263.115 120.279 263.197 120.82 263.36 121.212C263.524 121.6 263.75 121.873 264.039 122.031C264.333 122.19 264.669 122.269 265.047 122.269ZM273.54 123.501C272.275 123.501 271.328 123.193 270.698 122.577C270.068 121.957 269.753 120.949 269.753 119.553C269.753 118.237 270.04 117.255 270.614 116.606C271.188 115.953 271.974 115.626 272.973 115.626C273.953 115.626 274.706 115.953 275.234 116.606C275.761 117.26 276.025 118.254 276.025 119.588V120.008H271.23C271.258 120.867 271.47 121.471 271.867 121.821C272.263 122.171 272.884 122.346 273.729 122.346C274.018 122.346 274.321 122.323 274.639 122.276C274.956 122.225 275.287 122.153 275.633 122.059V123.207C275.255 123.31 274.895 123.385 274.555 123.431C274.214 123.478 273.876 123.501 273.54 123.501ZM272.959 116.627C272.431 116.627 272.014 116.809 271.706 117.173C271.402 117.533 271.241 118.17 271.223 119.084H274.639C274.625 118.174 274.473 117.537 274.184 117.173C273.894 116.809 273.486 116.627 272.959 116.627ZM277.52 123.361V112.049H278.983V123.361H277.52ZM284.397 123.361V112.049H285.86V116.571H285.937C286.53 115.941 287.288 115.626 288.212 115.626C288.674 115.626 289.087 115.717 289.451 115.899C289.82 116.081 290.109 116.375 290.319 116.781C290.534 117.187 290.641 117.731 290.641 118.412V123.361H289.178V118.496C289.178 117.899 289.048 117.488 288.786 117.264C288.525 117.036 288.177 116.921 287.743 116.921C287.421 116.921 287.088 116.991 286.742 117.131C286.397 117.267 286.103 117.493 285.86 117.81V123.361H284.397ZM292.532 123.361V115.745H293.995V123.361H292.532ZM293.267 114.261C292.623 114.261 292.301 113.981 292.301 113.421C292.301 113.155 292.383 112.948 292.546 112.798C292.709 112.644 292.95 112.567 293.267 112.567C293.584 112.567 293.825 112.644 293.988 112.798C294.151 112.948 294.233 113.155 294.233 113.421C294.233 113.981 293.911 114.261 293.267 114.261ZM299.036 123.494C298.215 123.494 297.578 123.287 297.125 122.871C296.677 122.456 296.453 121.791 296.453 120.876V116.928H295.081V115.745H296.453L296.705 113.001H297.916V115.745H300.184V116.928H297.916V120.638C297.916 121.245 298.035 121.667 298.273 121.905C298.516 122.143 298.887 122.262 299.386 122.262C299.638 122.262 299.935 122.225 300.275 122.15V123.354C299.865 123.448 299.452 123.494 299.036 123.494ZM304.34 123.501C303.308 123.501 302.485 123.186 301.869 122.556C301.257 121.922 300.952 120.925 300.952 119.567C300.952 118.205 301.255 117.208 301.862 116.578C302.468 115.944 303.294 115.626 304.34 115.626C305.385 115.626 306.211 115.944 306.818 116.578C307.424 117.208 307.728 118.202 307.728 119.56C307.728 120.914 307.42 121.91 306.804 122.549C306.192 123.184 305.371 123.501 304.34 123.501ZM304.34 122.346C304.732 122.346 305.07 122.262 305.355 122.094C305.639 121.922 305.859 121.635 306.013 121.233C306.167 120.827 306.244 120.274 306.244 119.574C306.244 118.865 306.167 118.307 306.013 117.901C305.859 117.495 305.639 117.208 305.355 117.04C305.07 116.868 304.732 116.781 304.34 116.781C303.948 116.781 303.609 116.868 303.325 117.04C303.04 117.208 302.821 117.493 302.667 117.894C302.513 118.296 302.436 118.846 302.436 119.546C302.436 120.256 302.513 120.813 302.667 121.219C302.821 121.625 303.04 121.915 303.325 122.087C303.609 122.26 303.948 122.346 304.34 122.346Z" fill="black"/>
<circle cx="264.598" cy="142.691" r="8.01031" fill="#C4C4C4"/>
<path d="M263.71 145.159V142.926H261.568V141.218H263.71V138.985H265.488V141.218H267.63V142.926H265.488V145.159H263.71Z" fill="black"/>
<ellipse cx="582.149" cy="77.4638" rx="21.7423" ry="21.1701" transform="rotate(-90 582.149 77.4638)" fill="#9284BE"/>
<path d="M542.471 123.361V114.268H539.083V113.001H547.357V114.268H543.962V123.361H542.471ZM548.326 123.361V115.745H549.789V123.361H548.326ZM548.389 114.632L549.915 112.049H551.483L549.733 114.632H548.389ZM554.83 123.494C554.009 123.494 553.372 123.287 552.919 122.871C552.471 122.456 552.247 121.791 552.247 120.876V116.928H550.875V115.745H552.247L552.499 113.001H553.71V115.745H555.978V116.928H553.71V120.638C553.71 121.245 553.829 121.667 554.067 121.905C554.31 122.143 554.681 122.262 555.18 122.262C555.432 122.262 555.728 122.225 556.069 122.15V123.354C555.658 123.448 555.245 123.494 554.83 123.494ZM559.628 123.487C559.147 123.487 558.718 123.399 558.34 123.221C557.966 123.039 557.672 122.745 557.458 122.339C557.243 121.933 557.136 121.392 557.136 120.715V115.745H558.599V120.631C558.599 121.224 558.727 121.635 558.984 121.863C559.245 122.092 559.583 122.206 559.999 122.206C560.307 122.206 560.631 122.136 560.972 121.996C561.317 121.856 561.611 121.63 561.854 121.317V115.745H563.31V123.361H562.092L561.994 122.549H561.917C561.604 122.862 561.252 123.098 560.86 123.256C560.472 123.41 560.062 123.487 559.628 123.487ZM565.279 123.361V112.049H566.742V123.361H565.279ZM571.714 123.501C570.682 123.501 569.859 123.186 569.243 122.556C568.631 121.922 568.326 120.925 568.326 119.567C568.326 118.205 568.629 117.208 569.236 116.578C569.842 115.944 570.668 115.626 571.714 115.626C572.759 115.626 573.585 115.944 574.192 116.578C574.798 117.208 575.102 118.202 575.102 119.56C575.102 120.914 574.794 121.91 574.178 122.549C573.566 123.184 572.745 123.501 571.714 123.501ZM571.714 122.346C572.106 122.346 572.444 122.262 572.729 122.094C573.013 121.922 573.233 121.635 573.387 121.233C573.541 120.827 573.618 120.274 573.618 119.574C573.618 118.865 573.541 118.307 573.387 117.901C573.233 117.495 573.013 117.208 572.729 117.04C572.444 116.868 572.106 116.781 571.714 116.781C571.322 116.781 570.983 116.868 570.699 117.04C570.414 117.208 570.195 117.493 570.041 117.894C569.887 118.296 569.81 118.846 569.81 119.546C569.81 120.256 569.887 120.813 570.041 121.219C570.195 121.625 570.414 121.915 570.699 122.087C570.983 122.26 571.322 122.346 571.714 122.346ZM582.793 123.494C582.238 123.494 581.729 123.368 581.267 123.116C580.81 122.864 580.444 122.463 580.168 121.912C579.893 121.357 579.755 120.622 579.755 119.707C579.755 118.349 580.089 117.33 580.756 116.648C581.428 115.967 582.408 115.626 583.696 115.626C583.892 115.626 584.088 115.636 584.284 115.654C584.48 115.668 584.66 115.687 584.823 115.71V112.049H586.286V123.361H585.047L584.956 122.542H584.872C584.648 122.827 584.359 123.058 584.004 123.235C583.65 123.408 583.246 123.494 582.793 123.494ZM583.171 122.269C583.479 122.269 583.78 122.204 584.074 122.073C584.368 121.943 584.618 121.737 584.823 121.457V116.9C584.669 116.863 584.49 116.835 584.284 116.816C584.079 116.793 583.878 116.781 583.682 116.781C582.875 116.781 582.266 117.001 581.855 117.439C581.445 117.873 581.239 118.59 581.239 119.588C581.239 120.279 581.321 120.82 581.484 121.212C581.648 121.6 581.874 121.873 582.163 122.031C582.457 122.19 582.793 122.269 583.171 122.269ZM591.663 123.501C590.399 123.501 589.451 123.193 588.821 122.577C588.191 121.957 587.876 120.949 587.876 119.553C587.876 118.237 588.163 117.255 588.737 116.606C589.311 115.953 590.098 115.626 591.096 115.626C592.076 115.626 592.83 115.953 593.357 116.606C593.885 117.26 594.148 118.254 594.148 119.588V120.008H589.353C589.381 120.867 589.594 121.471 589.99 121.821C590.387 122.171 591.008 122.346 591.852 122.346C592.142 122.346 592.445 122.323 592.762 122.276C593.08 122.225 593.411 122.153 593.756 122.059V123.207C593.378 123.31 593.019 123.385 592.678 123.431C592.338 123.478 591.999 123.501 591.663 123.501ZM591.082 116.627C590.555 116.627 590.137 116.809 589.829 117.173C589.526 117.533 589.365 118.17 589.346 119.084H592.762C592.748 118.174 592.597 117.537 592.307 117.173C592.018 116.809 591.61 116.627 591.082 116.627ZM595.644 123.361V112.049H597.107V123.361H595.644ZM602.521 123.361V112.049H603.984V116.571H604.061C604.654 115.941 605.412 115.626 606.336 115.626C606.798 115.626 607.211 115.717 607.575 115.899C607.944 116.081 608.233 116.375 608.443 116.781C608.658 117.187 608.765 117.731 608.765 118.412V123.361H607.302V118.496C607.302 117.899 607.171 117.488 606.91 117.264C606.649 117.036 606.301 116.921 605.867 116.921C605.545 116.921 605.211 116.991 604.866 117.131C604.521 117.267 604.227 117.493 603.984 117.81V123.361H602.521ZM610.656 123.361V115.745H612.119V123.361H610.656ZM611.391 114.261C610.747 114.261 610.425 113.981 610.425 113.421C610.425 113.155 610.507 112.948 610.67 112.798C610.833 112.644 611.074 112.567 611.391 112.567C611.708 112.567 611.949 112.644 612.112 112.798C612.275 112.948 612.357 113.155 612.357 113.421C612.357 113.981 612.035 114.261 611.391 114.261ZM617.16 123.494C616.339 123.494 615.702 123.287 615.249 122.871C614.801 122.456 614.577 121.791 614.577 120.876V116.928H613.205V115.745H614.577L614.829 113.001H616.04V115.745H618.308V116.928H616.04V120.638C616.04 121.245 616.159 121.667 616.397 121.905C616.64 122.143 617.011 122.262 617.51 122.262C617.762 122.262 618.059 122.225 618.399 122.15V123.354C617.989 123.448 617.576 123.494 617.16 123.494ZM622.464 123.501C621.432 123.501 620.609 123.186 619.993 122.556C619.381 121.922 619.076 120.925 619.076 119.567C619.076 118.205 619.379 117.208 619.986 116.578C620.592 115.944 621.418 115.626 622.464 115.626C623.509 115.626 624.335 115.944 624.942 116.578C625.548 117.208 625.852 118.202 625.852 119.56C625.852 120.914 625.544 121.91 624.928 122.549C624.316 123.184 623.495 123.501 622.464 123.501ZM622.464 122.346C622.856 122.346 623.194 122.262 623.479 122.094C623.763 121.922 623.983 121.635 624.137 121.233C624.291 120.827 624.368 120.274 624.368 119.574C624.368 118.865 624.291 118.307 624.137 117.901C623.983 117.495 623.763 117.208 623.479 117.04C623.194 116.868 622.856 116.781 622.464 116.781C622.072 116.781 621.733 116.868 621.449 117.04C621.164 117.208 620.945 117.493 620.791 117.894C620.637 118.296 620.56 118.846 620.56 119.546C620.56 120.256 620.637 120.813 620.791 121.219C620.945 121.625 621.164 121.915 621.449 122.087C621.733 122.26 622.072 122.346 622.464 122.346Z" fill="black"/>
<circle cx="582.722" cy="142.691" r="8.01031" fill="#C4C4C4"/>
<path d="M581.834 145.159V142.926H579.692V141.218H581.834V138.985H583.612V141.218H585.754V142.926H583.612V145.159H581.834Z" fill="black"/>
<ellipse cx="900.273" cy="74.0312" rx="21.7423" ry="21.1701" transform="rotate(-90 900.273 74.0312)" fill="#9284BE"/>
<path d="M860.595 119.929V110.836H857.207V109.569H865.481V110.836H862.086V119.929H860.595ZM866.45 119.929V112.313H867.913V119.929H866.45ZM866.513 111.2L868.039 108.617H869.607L867.857 111.2H866.513ZM872.954 120.062C872.133 120.062 871.496 119.854 871.043 119.439C870.595 119.023 870.371 118.358 870.371 117.444V113.496H868.999V112.313H870.371L870.623 109.569H871.834V112.313H874.102V113.496H871.834V117.206C871.834 117.812 871.953 118.235 872.191 118.473C872.434 118.711 872.805 118.83 873.304 118.83C873.556 118.83 873.852 118.792 874.193 118.718V119.922C873.782 120.015 873.369 120.062 872.954 120.062ZM877.752 120.055C877.271 120.055 876.842 119.966 876.464 119.789C876.09 119.607 875.796 119.313 875.582 118.907C875.367 118.501 875.26 117.959 875.26 117.283V112.313H876.723V117.199C876.723 117.791 876.851 118.202 877.108 118.431C877.369 118.659 877.707 118.774 878.123 118.774C878.431 118.774 878.755 118.704 879.096 118.564C879.441 118.424 879.735 118.197 879.978 117.885V112.313H881.434V119.929H880.216L880.118 119.117H880.041C879.728 119.429 879.376 119.665 878.984 119.824C878.596 119.978 878.186 120.055 877.752 120.055ZM883.403 119.929V108.617H884.866V119.929H883.403ZM889.838 120.069C888.806 120.069 887.983 119.754 887.367 119.124C886.755 118.489 886.45 117.493 886.45 116.135C886.45 114.772 886.753 113.776 887.36 113.146C887.966 112.511 888.792 112.194 889.838 112.194C890.883 112.194 891.709 112.511 892.316 113.146C892.922 113.776 893.226 114.77 893.226 116.128C893.226 117.481 892.918 118.477 892.302 119.117C891.69 119.751 890.869 120.069 889.838 120.069ZM889.838 118.914C890.23 118.914 890.568 118.83 890.853 118.662C891.137 118.489 891.357 118.202 891.511 117.801C891.665 117.395 891.742 116.842 891.742 116.142C891.742 115.432 891.665 114.875 891.511 114.469C891.357 114.063 891.137 113.776 890.853 113.608C890.568 113.435 890.23 113.349 889.838 113.349C889.446 113.349 889.107 113.435 888.823 113.608C888.538 113.776 888.319 114.06 888.165 114.462C888.011 114.863 887.934 115.414 887.934 116.114C887.934 116.823 888.011 117.381 888.165 117.787C888.319 118.193 888.538 118.482 888.823 118.655C889.107 118.827 889.446 118.914 889.838 118.914ZM900.917 120.062C900.362 120.062 899.853 119.936 899.391 119.684C898.934 119.432 898.568 119.03 898.292 118.48C898.017 117.924 897.879 117.189 897.879 116.275C897.879 114.917 898.213 113.897 898.88 113.216C899.552 112.534 900.532 112.194 901.82 112.194C902.016 112.194 902.212 112.203 902.408 112.222C902.604 112.236 902.784 112.254 902.947 112.278V108.617H904.41V119.929H903.171L903.08 119.11H902.996C902.772 119.394 902.483 119.625 902.128 119.803C901.774 119.975 901.37 120.062 900.917 120.062ZM901.295 118.837C901.603 118.837 901.904 118.771 902.198 118.641C902.492 118.51 902.742 118.305 902.947 118.025V113.468C902.793 113.43 902.614 113.402 902.408 113.384C902.203 113.36 902.002 113.349 901.806 113.349C900.999 113.349 900.39 113.568 899.979 114.007C899.569 114.441 899.363 115.157 899.363 116.156C899.363 116.846 899.445 117.388 899.608 117.78C899.772 118.167 899.998 118.44 900.287 118.599C900.581 118.757 900.917 118.837 901.295 118.837ZM909.787 120.069C908.523 120.069 907.575 119.761 906.945 119.145C906.315 118.524 906 117.516 906 116.121C906 114.805 906.287 113.822 906.861 113.174C907.435 112.52 908.222 112.194 909.22 112.194C910.2 112.194 910.954 112.52 911.481 113.174C912.009 113.827 912.272 114.821 912.272 116.156V116.576H907.477C907.505 117.434 907.718 118.039 908.114 118.389C908.511 118.739 909.132 118.914 909.976 118.914C910.266 118.914 910.569 118.89 910.886 118.844C911.204 118.792 911.535 118.72 911.88 118.627V119.775C911.502 119.877 911.143 119.952 910.802 119.999C910.462 120.045 910.123 120.069 909.787 120.069ZM909.206 113.195C908.679 113.195 908.261 113.377 907.953 113.741C907.65 114.1 907.489 114.737 907.47 115.652H910.886C910.872 114.742 910.721 114.105 910.431 113.741C910.142 113.377 909.734 113.195 909.206 113.195ZM913.768 119.929V108.617H915.231V119.929H913.768ZM920.645 119.929V108.617H922.108V113.139H922.185C922.778 112.509 923.536 112.194 924.46 112.194C924.922 112.194 925.335 112.285 925.699 112.467C926.068 112.649 926.357 112.943 926.567 113.349C926.782 113.755 926.889 114.298 926.889 114.98V119.929H925.426V115.064C925.426 114.466 925.295 114.056 925.034 113.832C924.773 113.603 924.425 113.489 923.991 113.489C923.669 113.489 923.335 113.559 922.99 113.699C922.645 113.834 922.351 114.06 922.108 114.378V119.929H920.645ZM928.78 119.929V112.313H930.243V119.929H928.78ZM929.515 110.829C928.871 110.829 928.549 110.549 928.549 109.989C928.549 109.723 928.631 109.515 928.794 109.366C928.957 109.212 929.198 109.135 929.515 109.135C929.832 109.135 930.073 109.212 930.236 109.366C930.399 109.515 930.481 109.723 930.481 109.989C930.481 110.549 930.159 110.829 929.515 110.829ZM935.284 120.062C934.463 120.062 933.826 119.854 933.373 119.439C932.925 119.023 932.701 118.358 932.701 117.444V113.496H931.329V112.313H932.701L932.953 109.569H934.164V112.313H936.432V113.496H934.164V117.206C934.164 117.812 934.283 118.235 934.521 118.473C934.764 118.711 935.135 118.83 935.634 118.83C935.886 118.83 936.183 118.792 936.523 118.718V119.922C936.113 120.015 935.7 120.062 935.284 120.062ZM940.588 120.069C939.556 120.069 938.733 119.754 938.117 119.124C937.505 118.489 937.2 117.493 937.2 116.135C937.2 114.772 937.503 113.776 938.11 113.146C938.716 112.511 939.542 112.194 940.588 112.194C941.633 112.194 942.459 112.511 943.066 113.146C943.672 113.776 943.976 114.77 943.976 116.128C943.976 117.481 943.668 118.477 943.052 119.117C942.44 119.751 941.619 120.069 940.588 120.069ZM940.588 118.914C940.98 118.914 941.318 118.83 941.603 118.662C941.887 118.489 942.107 118.202 942.261 117.801C942.415 117.395 942.492 116.842 942.492 116.142C942.492 115.432 942.415 114.875 942.261 114.469C942.107 114.063 941.887 113.776 941.603 113.608C941.318 113.435 940.98 113.349 940.588 113.349C940.196 113.349 939.857 113.435 939.573 113.608C939.288 113.776 939.069 114.06 938.915 114.462C938.761 114.863 938.684 115.414 938.684 116.114C938.684 116.823 938.761 117.381 938.915 117.787C939.069 118.193 939.288 118.482 939.573 118.655C939.857 118.827 940.196 118.914 940.588 118.914Z" fill="black"/>
<circle cx="900.846" cy="139.258" r="8.01031" fill="#C4C4C4"/>
<path d="M899.958 141.726V139.493H897.816V137.785H899.958V135.552H901.736V137.785H903.878V139.493H901.736V141.726H899.958Z" fill="black"/>
</svg>
