<svg width="103" height="116" viewBox="0 0 103 116" fill="none" xmlns="http://www.w3.org/2000/svg">
<path d="M60.9191 58.3512C61.8847 58.3512 62.6088 58.0679 63.333 57.2182L79.2641 39.3728C80.2296 38.2397 80.7124 36.2569 79.9882 34.8406C78.0572 30.3085 75.1606 25.7763 72.0227 21.8107C68.6433 17.8451 64.7812 14.4459 60.9191 12.1799C59.9536 11.6133 59.4709 11.3301 58.9881 11.3301C58.0226 11.3301 57.2984 11.6133 56.5743 12.4631L41.1259 30.5917C40.1604 31.7248 39.919 33.7076 40.4018 35.1239C41.6087 37.6732 42.8156 40.2226 44.5052 42.7719L3.71184 81.012L3.47046 81.2952C-1.11578 86.3939 -1.11578 95.175 3.22908 100.274C5.40151 102.823 8.29808 104.239 11.436 104.239C14.3326 104.239 17.2292 102.823 19.4016 100.557L19.643 100.274L52.9536 52.9693C54.8846 54.6688 57.0571 56.3684 59.2295 57.7847C59.7122 58.0679 60.4364 58.3512 60.9191 58.3512Z" fill="#F0F0F0"/>
<path d="M66.9537 58.0698C65.0226 60.3359 65.0226 64.3015 66.9537 66.5676L68.1606 67.9839C69.1261 69.1169 70.333 69.6835 71.7813 69.6835C73.2296 69.6835 74.4365 69.1169 75.402 67.9839L88.1952 52.9711C90.1262 50.705 90.1262 46.7394 88.1952 44.4733L86.9882 43.057C86.0227 41.9239 84.8158 41.3574 83.3675 41.3574C81.9193 41.3574 80.7123 41.9239 79.7468 43.057L66.9537 58.0698Z" fill="#F0F0F0"/>
<path d="M32.9189 26.6264C33.8844 27.7594 35.0913 28.3259 36.5396 28.3259C37.9879 28.3259 39.1948 27.7594 40.1603 26.6264L52.9535 11.6136C54.8845 9.34756 54.8845 5.38193 52.9535 3.11585L51.7465 1.69956C50.781 0.566518 49.5741 0 48.1258 0C46.6776 0 45.4707 0.566518 44.5051 1.69956L31.712 16.7123C29.7809 18.9784 29.7809 22.944 31.712 25.2101L32.9189 26.6264Z" fill="#F0F0F0"/>
<path d="M70.3334 87.2432C66.954 87.2432 64.2988 90.3591 64.2988 94.3247V96.3076C64.2988 97.1574 64.7816 97.7239 65.5057 97.7239H88.9197C89.6438 97.7239 90.1266 97.1574 90.1266 96.3076V94.3247C90.1266 90.3591 87.4714 87.2432 84.0921 87.2432H70.3334Z" fill="#F0F0F0"/>
<path d="M91.0904 101.405H82.8834H80.9524H63.0902C55.8487 101.405 52.7108 108.204 52.228 115.002H102.194C101.711 108.204 98.5732 101.405 91.0904 101.405Z" fill="#F0F0F0"/>
</svg>
