<svg width="85" height="108" viewBox="0 0 85 108" fill="none" xmlns="http://www.w3.org/2000/svg">
<path d="M28.5645 28.3141C27.1983 26.6175 25.5453 25.2743 23.7113 24.3704C21.8774 23.4665 19.9028 23.0218 17.914 23.0648C15.9125 23.0119 13.9239 23.4516 12.0761 24.3557C10.2284 25.2599 8.56254 26.6083 7.18604 28.3141C-0.308027 37.4038 0.00180719 54.9697 0.00180719 56.9467C0.0270461 58.06 0.421713 59.1176 1.10173 59.8944C1.78174 60.6712 2.69335 61.1057 3.64233 61.1053H3.87471C4.84213 61.0638 5.75614 60.5742 6.41667 59.7437C7.07719 58.9132 7.43043 57.8095 7.39905 56.674C7.32857 51.5461 7.92275 46.4353 9.16122 41.5169V71.0585V103.304C9.22843 104.386 9.64219 105.399 10.3193 106.137C10.9965 106.876 11.8868 107.287 12.8114 107.287C13.736 107.287 14.6264 106.876 15.3035 106.137C15.9807 105.399 16.3944 104.386 16.4616 103.304V70.9449H19.3663V103.304C19.3663 104.437 19.7499 105.524 20.4326 106.325C21.1153 107.126 22.0413 107.576 23.0069 107.576C23.9724 107.576 24.8984 107.126 25.5811 106.325C26.2638 105.524 26.6474 104.437 26.6474 103.304V41.5397C27.8771 46.4602 28.4711 51.5694 28.4096 56.6968C28.3834 57.8283 28.739 58.9262 29.3989 59.7518C30.0589 60.5773 30.9699 61.0638 31.9339 61.1053H32.0501C32.9991 61.1057 33.9107 60.6712 34.5907 59.8944C35.2707 59.1176 35.6654 58.06 35.6906 56.9467C35.7874 54.9697 36.0585 37.4038 28.5645 28.3141Z" fill="#F0F0F0"/>
<path d="M17.8752 20.8608C19.6339 20.8608 21.3532 20.2485 22.8152 19.1014C24.2773 17.9543 25.4166 16.3239 26.0887 14.4167C26.7609 12.5095 26.9358 10.4111 26.5912 8.38718C26.2467 6.36326 25.3983 4.50478 24.1533 3.04696C22.9083 1.58915 21.3227 0.597549 19.5973 0.197659C17.8718 -0.202231 16.0841 0.00757114 14.4603 0.80051C12.8365 1.59345 11.4497 2.93388 10.4754 4.65214C9.50104 6.3704 8.98301 8.38924 8.98684 10.4531C8.99197 13.2155 9.93068 15.8627 11.597 17.8139C13.2633 19.7651 15.5212 20.8608 17.8752 20.8608Z" fill="#F0F0F0"/>
<path d="M76.8934 28.6316C75.5294 26.9316 73.8768 25.5861 72.0423 24.682C70.2078 23.7778 68.2322 23.3351 66.2429 23.3823C64.2537 23.3365 62.2784 23.7799 60.4441 24.684C58.6098 25.588 56.9571 26.9328 55.5924 28.6316C48.0983 37.7213 48.3694 55.3099 48.4275 57.2869C48.4528 58.398 48.8481 59.4533 49.5287 60.2265C50.2092 60.9996 51.1208 61.429 52.068 61.4227H52.2036C52.6825 61.4081 53.1543 61.282 53.5914 61.0519C54.0286 60.8218 54.4225 60.4922 54.7503 60.0821C55.0781 59.6721 55.3333 59.1898 55.5011 58.6631C55.6689 58.1365 55.746 57.576 55.7279 57.0142C55.6392 51.4504 56.3595 45.9096 57.858 40.63L58.3809 50.7878L52.7458 74.5573C52.6502 74.9188 52.6215 75.3002 52.6616 75.6758C52.7017 76.0514 52.8096 76.4127 52.9783 76.7354C53.147 77.0581 53.3724 77.3348 53.6395 77.547C53.9067 77.7592 54.2094 77.9021 54.5273 77.9659L57.4514 78.5795V103.69C57.5186 104.772 57.9323 105.784 58.6095 106.523C59.2866 107.262 60.177 107.672 61.1016 107.672C62.0262 107.672 62.9165 107.262 63.5937 106.523C64.2708 105.784 64.6846 104.772 64.7518 103.69V79.5566C65.7394 79.5566 66.6882 79.5566 67.7339 79.5566V103.69C67.7339 104.251 67.8281 104.806 68.011 105.325C68.194 105.843 68.4622 106.314 68.8002 106.711C69.1383 107.107 69.5396 107.422 69.9813 107.637C70.423 107.851 70.8964 107.962 71.3745 107.962C71.8525 107.962 72.3259 107.851 72.7676 107.637C73.2093 107.422 73.6106 107.107 73.9487 106.711C74.2868 106.314 74.5549 105.843 74.7379 105.325C74.9208 104.806 75.015 104.251 75.015 103.69V78.9431L77.8035 78.4886C78.1345 78.4413 78.4528 78.3104 78.7365 78.1047C79.0201 77.899 79.2624 77.6235 79.4465 77.2973C79.6306 76.9711 79.7522 76.6018 79.8028 76.2151C79.8535 75.8283 79.832 75.4333 79.7399 75.0572L74.4728 50.7878L74.7826 41.0618C76.1548 46.2069 76.8087 51.5786 76.7191 56.9687C76.7036 57.5298 76.7825 58.089 76.9512 58.6143C77.12 59.1396 77.3753 59.6207 77.7026 60.0302C78.03 60.4396 78.4228 60.7693 78.8588 61.0004C79.2947 61.2316 79.7653 61.3596 80.2434 61.3772H80.3596C81.3068 61.3836 82.2184 60.9541 82.899 60.181C83.5795 59.4079 83.9748 58.3526 84.0001 57.2414C84.1163 55.3099 84.3874 37.6986 76.8934 28.6316Z" fill="#F0F0F0"/>
<path d="M66.2042 20.8608C67.9622 20.8608 69.6806 20.2491 71.1423 19.103C72.604 17.9569 73.7432 16.3279 74.4159 14.422C75.0887 12.5161 75.2647 10.4189 74.9217 8.39555C74.5788 6.37225 73.7323 4.51372 72.4892 3.055C71.2462 1.59628 69.6624 0.602882 67.9382 0.200422C66.2141 -0.202038 64.4269 0.00451925 62.8028 0.793973C61.1787 1.58343 59.7905 2.92032 58.8139 4.63559C57.8372 6.35087 57.3159 8.36748 57.3159 10.4304C57.3159 13.1967 58.2524 15.8498 59.9192 17.8058C61.5861 19.7619 63.8469 20.8608 66.2042 20.8608Z" fill="#F0F0F0"/>
</svg>
